<svg width="100" height="100" viewBox="0 0 100 100" fill="none" xmlns="http://www.w3.org/2000/svg">
<g clip-path="url(#clip0_374_705)">
<path d="M81.6667 72.75L82.825 66.975C83.4333 63.9208 85.0667 61.1 85.65 58.0417C85.775 57.4056 85.8361 56.7528 85.8333 56.0833C85.8316 54.6335 85.5272 53.2001 84.9397 51.8747C84.3521 50.5493 83.4944 49.3611 82.4214 48.3862C81.3483 47.4113 80.0836 46.6711 78.7081 46.213C77.3325 45.7549 75.8765 45.589 74.4332 45.7259C72.9899 45.8627 71.5911 46.2994 70.3262 47.0079C69.0613 47.7164 67.9582 48.6811 67.0876 49.8404C66.2169 50.9996 65.5978 52.3278 65.2699 53.74C64.942 55.1523 64.9125 56.6174 65.1833 58.0417C65.7667 61.1042 67.4 63.9167 68.0125 66.975L69.1667 72.75M81.6667 72.75H69.1667M81.6667 72.75L92.0708 75.525C93.8471 75.9202 95.4356 76.9092 96.5741 78.3288C97.7126 79.7483 98.3332 81.5136 98.3333 83.3333C98.3333 85.5417 96.5417 87.3333 94.3333 87.3333H56.5C55.4391 87.3333 54.4217 86.9119 53.6716 86.1618C52.9214 85.4116 52.5 84.3942 52.5 83.3333C52.5 79.5833 55.1042 76.3375 58.7625 75.525L69.1667 72.75" stroke="#D9D9D9" stroke-width="4"/>
<path d="M77.5 33.1667V29C77.5 17.2167 77.5 11.3208 73.8375 7.6625C70.1792 4 64.2833 4 52.5 4H40C28.2167 4 22.3208 4 18.6625 7.6625C15 11.3208 15 17.2167 15 29V62.3333C15 74.1167 15 80.0125 18.6625 83.6708C22.3208 87.3333 28.2167 87.3333 40 87.3333" stroke="#D9D9D9" stroke-width="4" stroke-linecap="round"/>
<path d="M35.833 31.7792C35.833 31.7792 38.4372 31.7792 41.0413 37.3334C41.0413 37.3334 49.3122 23.4459 56.6663 20.6667" stroke="#D9D9D9" stroke-width="4" stroke-linecap="round" stroke-linejoin="round"/>
<path d="M31.667 54H48.3337M31.667 66.5H48.3337" stroke="#D9D9D9" stroke-width="4" stroke-linecap="round"/>
</g>
<defs>
<clipPath id="clip0_374_705">
<rect width="100" height="100" fill="white"/>
</clipPath>
</defs>
</svg>
