<svg width="25" height="25" viewBox="0 0 25 25" fill="none" xmlns="http://www.w3.org/2000/svg">
<g clip-path="url(#clip0_318_1860)">
<path d="M18.277 0.0948389C18.5477 0.254152 18.7704 0.465329 18.9941 0.683828C19.0367 0.723923 19.0792 0.764017 19.1231 0.805326C19.5592 1.2251 19.8312 1.57714 19.8914 2.18834C19.869 2.85882 19.3918 3.27242 18.9482 3.71416C18.9106 3.75178 18.873 3.7894 18.8343 3.82816C18.7093 3.95325 18.5841 4.07816 18.459 4.20308C18.3689 4.29308 18.2789 4.3831 18.1889 4.47312C17.9956 4.66644 17.8022 4.85968 17.6088 5.05285C17.3291 5.33213 17.0496 5.61155 16.7701 5.89101C16.3165 6.34448 15.8628 6.79784 15.409 7.25114C14.9684 7.69128 14.5279 8.13148 14.0874 8.57174C14.0602 8.59891 14.0331 8.62608 14.0051 8.65408C13.8687 8.7904 13.7323 8.92672 13.5959 9.06304C12.4658 10.1927 11.3355 11.3221 10.2051 12.4514C10.2711 12.5988 10.3446 12.7007 10.459 12.8143C10.5075 12.8629 10.5075 12.8629 10.557 12.9125C10.5927 12.9477 10.6283 12.9829 10.665 13.0191C10.7028 13.0568 10.7406 13.0945 10.7796 13.1334C10.9067 13.2601 11.0341 13.3864 11.1616 13.5128C11.2526 13.6034 11.3436 13.694 11.4346 13.7847C11.6309 13.9801 11.8272 14.1754 12.0237 14.3706C12.3345 14.6793 12.6447 14.9884 12.9549 15.2977C13.0611 15.4035 13.1673 15.5094 13.2735 15.6152C13.3 15.6417 13.3266 15.6681 13.3539 15.6954C13.656 15.9965 13.9582 16.2974 14.2604 16.5983C14.288 16.6258 14.3157 16.6534 14.3441 16.6817C14.7915 17.1271 15.2391 17.5722 15.6868 18.0172C16.1467 18.4744 16.6061 18.9321 17.0652 19.3902C17.3482 19.6725 17.6315 19.9545 17.9154 20.2359C18.1101 20.429 18.3043 20.6225 18.4982 20.8164C18.61 20.9281 18.722 21.0396 18.8345 21.1507C18.9566 21.2714 19.078 21.3928 19.1992 21.5145C19.2345 21.549 19.2698 21.5835 19.3062 21.6191C19.6303 21.9474 19.8521 22.3124 19.8763 22.7814C19.8593 23.4047 19.502 23.7864 19.078 24.2084C19.0065 24.2799 18.936 24.3524 18.8656 24.425C18.5507 24.7441 18.2812 24.961 17.8316 25.0279C16.9163 25.0269 16.4558 24.4714 15.8422 23.8571C15.7979 23.813 15.7536 23.7688 15.708 23.7234C15.5865 23.6023 15.4652 23.481 15.3439 23.3598C15.2125 23.2285 15.081 23.0973 14.9495 22.9661C14.6628 22.6801 14.3762 22.3938 14.0897 22.1075C13.9106 21.9286 13.7315 21.7497 13.5524 21.5708C13.0557 21.0747 12.5592 20.5786 12.0627 20.0824C12.0152 20.0349 12.0152 20.0349 11.9667 19.9864C11.935 19.9547 11.9032 19.9229 11.8705 19.8902C11.8061 19.8259 11.7418 19.7615 11.6774 19.6972C11.6455 19.6653 11.6136 19.6334 11.5807 19.6005C11.0629 19.0829 10.5448 18.5656 10.0265 18.0485C9.49353 17.5167 8.96084 16.9846 8.42842 16.4522C8.12982 16.1537 7.8311 15.8552 7.53208 15.5571C7.27766 15.3034 7.02349 15.0495 6.76965 14.7953C6.64024 14.6657 6.51073 14.5362 6.38089 14.4071C6.23992 14.2668 6.09953 14.126 5.95919 13.9852C5.91839 13.9448 5.87759 13.9044 5.83555 13.8627C5.4529 13.4768 5.13636 13.0972 5.11169 12.5338C5.12456 12.1541 5.20845 11.869 5.46992 11.5871C5.50939 11.5444 5.54886 11.5018 5.58952 11.4579C5.78554 11.2521 5.98447 11.0494 6.18542 10.8483C6.23142 10.8021 6.27741 10.7559 6.32338 10.7097C6.44837 10.5841 6.5735 10.4587 6.69866 10.3333C6.83414 10.1976 6.96949 10.0617 7.10486 9.92576C7.43083 9.5986 7.75703 9.27168 8.08328 8.9448C8.17549 8.8524 8.2677 8.76 8.35991 8.6676C8.93342 8.09286 9.50701 7.51819 10.0808 6.94376C10.2133 6.81111 10.3458 6.67846 10.4784 6.5458C10.5113 6.51284 10.5442 6.47987 10.5781 6.4459C11.1125 5.91096 11.6463 5.37551 12.1799 4.83986C12.7285 4.28917 13.2776 3.73894 13.8271 3.18916C14.1354 2.88075 14.4434 2.57215 14.7509 2.26302C15.0125 2.00004 15.2746 1.73747 15.5371 1.47544C15.671 1.34182 15.8047 1.20801 15.9378 1.07366C16.0823 0.927905 16.2277 0.783113 16.3732 0.638393C16.4358 0.57477 16.4358 0.57477 16.4996 0.509862C16.9862 0.0296358 17.6095 -0.208363 18.277 0.0948389Z" fill="#022855"/>
</g>
<defs>
<clipPath id="clip0_318_1860">
<rect width="25" height="25" fill="white"/>
</clipPath>
</defs>
</svg>
