<svg width="18" height="18" viewBox="0 0 18 18" fill="none" xmlns="http://www.w3.org/2000/svg">
<path fill-rule="evenodd" clip-rule="evenodd" d="M3 3.75C3 3.15326 3.23705 2.58097 3.65901 2.15901C4.08097 1.73705 4.65326 1.5 5.25 1.5H12.75C13.3467 1.5 13.919 1.73705 14.341 2.15901C14.7629 2.58097 15 3.15326 15 3.75V15.771C15 16.686 13.965 17.2185 13.221 16.6868L9 13.6718L4.779 16.6868C4.03425 17.2193 3 16.6867 3 15.7717V3.75ZM5.25 3C5.05109 3 4.86032 3.07902 4.71967 3.21967C4.57902 3.36032 4.5 3.55109 4.5 3.75V15.0427L8.346 12.2955C8.53682 12.1592 8.76548 12.0859 9 12.0859C9.23452 12.0859 9.46318 12.1592 9.654 12.2955L13.5 15.0427V3.75C13.5 3.55109 13.421 3.36032 13.2803 3.21967C13.1397 3.07902 12.9489 3 12.75 3H5.25Z" fill="#022855"/>
</svg>
