<svg width="100" height="100" viewBox="0 0 100 100" fill="none" xmlns="http://www.w3.org/2000/svg">
<path d="M25.6709 70.8708L75.0001 70.8333M50.0001 12.5C57.9917 12.5 64.6667 18.125 66.2917 25.6292C68.4046 25.0574 70.6095 24.9073 72.7804 25.1876C74.9513 25.468 77.0457 26.1731 78.9441 27.2628C80.8425 28.3526 82.5076 29.8055 83.8445 31.5388C85.1813 33.2721 86.1637 35.2517 86.7355 37.3646C87.3073 39.4775 87.4573 41.6823 87.177 43.8532C86.8967 46.0241 86.1915 48.1186 85.1018 50.0169C84.0121 51.9153 82.5591 53.5805 80.8258 54.9173C79.0926 56.2542 77.113 57.2365 75.0001 57.8083V87.5H25.0001V57.8083C22.8871 57.236 20.9077 56.2531 19.1746 54.9157C17.4415 53.5784 15.9889 51.9128 14.8995 50.014C13.8102 48.1152 13.1055 46.0205 12.8257 43.8494C12.5459 41.6783 12.6965 39.4733 13.2688 37.3604C13.8412 35.2475 14.8241 33.268 16.1614 31.535C17.4988 29.8019 19.1644 28.3492 21.0631 27.2599C22.9619 26.1705 25.0566 25.4659 27.2278 25.1861C29.3989 24.9063 31.6038 25.0568 33.7167 25.6292C34.5244 21.9107 36.5801 18.5805 39.5423 16.1921C42.5046 13.8037 46.1949 12.5008 50.0001 12.5Z" stroke="#D9D9D9" stroke-width="4" stroke-linecap="round" stroke-linejoin="round"/>
</svg>
