<svg width="371" height="325" viewBox="0 0 371 325" fill="none" xmlns="http://www.w3.org/2000/svg">
<path d="M185.205 256.113C186.905 256.113 188.283 254.736 188.283 253.037C188.283 251.338 186.905 249.961 185.205 249.961C183.505 249.961 182.127 251.338 182.127 253.037C182.127 254.736 183.505 256.113 185.205 256.113Z" fill="#CFCFCF"/>
<path d="M95.792 24.5441V38.0402" stroke="#BABABA" stroke-linecap="round" stroke-linejoin="round"/>
<path d="M89.0083 31.2922H102.544" stroke="#BABABA" stroke-linecap="round" stroke-linejoin="round"/>
<path d="M249.524 109.664C223.237 109.664 196.479 108.597 171.449 101.629C146.889 94.8182 124.34 81.6045 104.24 66.3194C91.081 56.3699 79.1153 48.4291 62.0305 49.6218C45.3164 50.5257 29.3331 56.7632 16.4291 67.4179C-5.30381 86.438 -2.03759 121.685 6.66185 146.355C19.7267 183.61 59.4866 209.567 93.2794 226.359C132.317 245.849 175.217 257.18 218.212 263.677C255.899 269.421 304.327 273.564 336.989 248.988C366.982 226.359 375.21 174.759 367.861 139.92C366.078 129.628 360.595 120.342 352.441 113.807C331.368 98.3962 299.93 108.691 276.25 109.193C267.457 109.381 258.506 109.601 249.524 109.664Z" fill="#F2F2F2"/>
<path d="M207 6.15173C208.7 6.15173 210.078 4.77462 210.078 3.07586C210.078 1.37711 208.7 0 207 0C205.3 0 203.922 1.37711 203.922 3.07586C203.922 4.77462 205.3 6.15173 207 6.15173Z" fill="#CFCFCF"/>
<path d="M47.0815 245.661V259.157" stroke="#BABABA" stroke-linecap="round" stroke-linejoin="round"/>
<path d="M40.3291 252.409H53.8336" stroke="#BABABA" stroke-linecap="round" stroke-linejoin="round"/>
<path d="M186.461 324.755C250.135 324.755 301.752 321.537 301.752 317.567C301.752 313.598 250.135 310.38 186.461 310.38C122.788 310.38 71.1699 313.598 71.1699 317.567C71.1699 321.537 122.788 324.755 186.461 324.755Z" fill="#F2F2F2"/>
<path d="M279.14 240.577H79.9948C78.6621 240.576 77.3454 240.285 76.136 239.726C74.9265 239.167 73.8531 238.351 72.9899 237.336C72.1268 236.321 71.4945 235.131 71.1369 233.848C70.7792 232.565 70.7047 231.22 70.9185 229.905L96.3887 75.547C96.7328 73.3987 97.833 71.4437 99.4912 70.034C101.149 68.6243 103.257 67.8524 105.434 67.8573H304.579C305.91 67.8574 307.226 68.1475 308.434 68.7072C309.643 69.2669 310.714 70.083 311.575 71.0985C312.436 72.1141 313.065 73.3048 313.419 74.588C313.773 75.8711 313.842 77.2159 313.623 78.5287L288.279 232.887C287.926 235.049 286.811 237.013 285.134 238.423C283.458 239.834 281.331 240.598 279.14 240.577Z" fill="#D2D2D2"/>
<path d="M281.593 63.8205L163.385 11.0754C159.901 9.52063 155.815 11.0831 154.259 14.5653L116.795 98.4231C115.239 101.905 116.803 105.989 120.287 107.543L238.495 160.288C241.979 161.843 246.065 160.281 247.621 156.798L285.085 72.9408C286.641 69.4586 285.078 65.3753 281.593 63.8205Z" fill="white" stroke="#BABABA" stroke-linecap="round" stroke-linejoin="round"/>
<path d="M180.713 80.0666C183.825 75.7034 188.35 72.5495 193.522 71.1393C198.694 69.7291 204.195 70.1493 209.093 72.3287C213.991 74.5082 217.984 78.3128 220.395 83.0979C222.807 87.883 223.489 93.3543 222.326 98.5846" stroke="#BABABA" stroke-width="0.68" stroke-linecap="round" stroke-linejoin="round"/>
<path d="M237.244 75.3273C239.031 75.3273 240.479 73.8799 240.479 72.0945C240.479 70.3091 239.031 68.8617 237.244 68.8617C235.458 68.8617 234.009 70.3091 234.009 72.0945C234.009 73.8799 235.458 75.3273 237.244 75.3273Z" fill="#BABABA"/>
<path d="M190.387 54.424C192.173 54.424 193.621 52.9766 193.621 51.1912C193.621 49.4058 192.173 47.9584 190.387 47.9584C188.6 47.9584 187.152 49.4058 187.152 51.1912C187.152 52.9766 188.6 54.424 190.387 54.424Z" fill="#BABABA"/>
<path d="M278.26 240.514H78.1419C75.7069 240.506 73.3744 239.533 71.6555 237.809C69.9365 236.086 68.9714 233.751 68.9714 231.318V90.2986C68.9421 89.0752 69.1575 87.8583 69.6048 86.7191C70.0522 85.58 70.7225 84.5415 71.5766 83.6646C72.4307 82.7877 73.4513 82.0899 74.5787 81.6122C75.706 81.1345 76.9174 80.8865 78.1419 80.8827H151.035C152.727 80.8889 154.383 81.3609 155.824 82.2468C157.265 83.1327 158.433 84.3983 159.201 85.9045L169.596 106.243C170.361 107.751 171.529 109.019 172.97 109.905C174.411 110.792 176.069 111.262 177.762 111.265H278.26C280.693 111.265 283.025 112.23 284.745 113.949C286.465 115.668 287.431 117.999 287.431 120.43V231.318C287.431 233.751 286.466 236.086 284.747 237.809C283.028 239.533 280.696 240.506 278.26 240.514Z" fill="white" stroke="#BABABA" stroke-linecap="round" stroke-linejoin="round"/>
<path d="M247.451 116.067C235.89 116.061 224.587 119.481 214.971 125.895C205.356 132.31 197.86 141.43 193.431 152.103C189.003 162.775 187.841 174.52 190.092 185.853C192.344 197.185 197.908 207.596 206.081 215.768C214.253 223.94 224.667 229.506 236.006 231.762C247.344 234.019 259.097 232.864 269.779 228.444C280.46 224.024 289.59 216.537 296.014 206.931C302.437 197.325 305.866 186.031 305.866 174.477C305.866 158.991 299.713 144.139 288.759 133.186C277.805 122.233 262.947 116.075 247.451 116.067Z" fill="white" stroke="#BABABA" stroke-linecap="round" stroke-linejoin="round"/>
<path d="M289.033 216.849L304.61 232.416" stroke="#BABABA" stroke-linecap="round" stroke-linejoin="round"/>
<path d="M302.85 224.852L298.01 229.912C295.841 232.18 295.922 235.776 298.191 237.944L340.189 278.067C342.458 280.235 346.057 280.154 348.226 277.886L353.066 272.827C355.235 270.559 355.154 266.963 352.885 264.795L310.887 224.672C308.617 222.504 305.019 222.585 302.85 224.852Z" fill="#D2D2D2"/>
<path d="M333.943 3.07581V16.6033" stroke="#BABABA" stroke-linecap="round" stroke-linejoin="round"/>
<path d="M327.16 9.85522H340.696" stroke="#BABABA" stroke-linecap="round" stroke-linejoin="round"/>
</svg>
