<svg width="535" height="677" viewBox="0 0 535 677" fill="none" xmlns="http://www.w3.org/2000/svg">
<path d="M215.341 513.124C215.841 513.124 216.261 513.064 216.601 512.944C216.941 512.824 217.211 512.664 217.411 512.464C217.618 512.264 217.765 512.031 217.851 511.764C217.945 511.497 217.991 511.214 217.991 510.914C217.991 510.601 217.941 510.321 217.841 510.074C217.741 509.821 217.585 509.607 217.371 509.434C217.158 509.254 216.881 509.117 216.541 509.024C216.208 508.931 215.805 508.884 215.331 508.884H212.621V513.124H215.341ZM212.621 502.844V507.024H214.761C215.681 507.024 216.375 506.857 216.841 506.524C217.315 506.191 217.551 505.661 217.551 504.934C217.551 504.181 217.338 503.644 216.911 503.324C216.485 503.004 215.818 502.844 214.911 502.844H212.621ZM214.911 500.764C215.858 500.764 216.668 500.854 217.341 501.034C218.015 501.214 218.565 501.471 218.991 501.804C219.425 502.137 219.741 502.541 219.941 503.014C220.141 503.487 220.241 504.021 220.241 504.614C220.241 504.954 220.191 505.281 220.091 505.594C219.991 505.901 219.835 506.191 219.621 506.464C219.415 506.731 219.148 506.974 218.821 507.194C218.501 507.414 218.118 507.601 217.671 507.754C219.658 508.201 220.651 509.274 220.651 510.974C220.651 511.587 220.535 512.154 220.301 512.674C220.068 513.194 219.728 513.644 219.281 514.024C218.835 514.397 218.285 514.691 217.631 514.904C216.978 515.117 216.231 515.224 215.391 515.224H209.931V500.764H214.911ZM229.179 508.914C229.179 508.594 229.132 508.294 229.039 508.014C228.952 507.727 228.819 507.477 228.639 507.264C228.459 507.051 228.229 506.884 227.949 506.764C227.675 506.637 227.355 506.574 226.989 506.574C226.275 506.574 225.712 506.777 225.299 507.184C224.892 507.591 224.632 508.167 224.519 508.914H229.179ZM224.469 510.404C224.509 510.931 224.602 511.387 224.749 511.774C224.895 512.154 225.089 512.471 225.329 512.724C225.569 512.971 225.852 513.157 226.179 513.284C226.512 513.404 226.879 513.464 227.279 513.464C227.679 513.464 228.022 513.417 228.309 513.324C228.602 513.231 228.855 513.127 229.069 513.014C229.289 512.901 229.479 512.797 229.639 512.704C229.805 512.611 229.965 512.564 230.119 512.564C230.325 512.564 230.479 512.641 230.579 512.794L231.289 513.694C231.015 514.014 230.709 514.284 230.369 514.504C230.029 514.717 229.672 514.891 229.299 515.024C228.932 515.151 228.555 515.241 228.169 515.294C227.789 515.347 227.419 515.374 227.059 515.374C226.345 515.374 225.682 515.257 225.069 515.024C224.455 514.784 223.922 514.434 223.469 513.974C223.015 513.507 222.659 512.934 222.399 512.254C222.139 511.567 222.009 510.774 222.009 509.874C222.009 509.174 222.122 508.517 222.349 507.904C222.575 507.284 222.899 506.747 223.319 506.294C223.745 505.834 224.262 505.471 224.869 505.204C225.482 504.937 226.172 504.804 226.939 504.804C227.585 504.804 228.182 504.907 228.729 505.114C229.275 505.321 229.745 505.624 230.139 506.024C230.532 506.417 230.839 506.904 231.059 507.484C231.285 508.057 231.399 508.714 231.399 509.454C231.399 509.827 231.359 510.081 231.279 510.214C231.199 510.341 231.045 510.404 230.819 510.404H224.469ZM235.752 500.364V515.224H233.282V500.364H235.752ZM247.053 504.964V515.224H245.543C245.216 515.224 245.01 515.074 244.923 514.774L244.753 513.954C244.333 514.381 243.87 514.727 243.363 514.994C242.856 515.254 242.26 515.384 241.573 515.384C241.013 515.384 240.516 515.291 240.083 515.104C239.656 514.911 239.296 514.641 239.003 514.294C238.71 513.947 238.486 513.537 238.333 513.064C238.186 512.584 238.113 512.057 238.113 511.484V504.964H240.583V511.484C240.583 512.111 240.726 512.597 241.013 512.944C241.306 513.284 241.743 513.454 242.323 513.454C242.75 513.454 243.15 513.361 243.523 513.174C243.896 512.981 244.25 512.717 244.583 512.384V504.964H247.053ZM249.502 515.224V504.964H251.012C251.332 504.964 251.542 505.114 251.642 505.414L251.802 506.174C251.982 505.974 252.169 505.791 252.362 505.624C252.562 505.457 252.772 505.314 252.992 505.194C253.219 505.074 253.459 504.981 253.712 504.914C253.972 504.841 254.256 504.804 254.562 504.804C255.209 504.804 255.739 504.981 256.152 505.334C256.572 505.681 256.886 506.144 257.092 506.724C257.252 506.384 257.452 506.094 257.692 505.854C257.932 505.607 258.196 505.407 258.482 505.254C258.769 505.101 259.072 504.987 259.392 504.914C259.719 504.841 260.046 504.804 260.372 504.804C260.939 504.804 261.442 504.891 261.882 505.064C262.322 505.237 262.692 505.491 262.992 505.824C263.292 506.157 263.519 506.564 263.672 507.044C263.832 507.524 263.912 508.074 263.912 508.694V515.224H261.442V508.694C261.442 508.041 261.299 507.551 261.012 507.224C260.726 506.891 260.306 506.724 259.752 506.724C259.499 506.724 259.262 506.767 259.042 506.854C258.829 506.941 258.639 507.067 258.472 507.234C258.312 507.394 258.186 507.597 258.092 507.844C257.999 508.091 257.952 508.374 257.952 508.694V515.224H255.472V508.694C255.472 508.007 255.332 507.507 255.052 507.194C254.779 506.881 254.376 506.724 253.842 506.724C253.482 506.724 253.146 506.814 252.832 506.994C252.526 507.167 252.239 507.407 251.972 507.714V515.224H249.502ZM287.193 500.764V515.224H284.823V505.884C284.823 505.511 284.843 505.107 284.883 504.674L280.513 512.884C280.307 513.277 279.99 513.474 279.563 513.474H279.183C278.757 513.474 278.44 513.277 278.233 512.884L273.813 504.644C273.833 504.864 273.85 505.081 273.863 505.294C273.877 505.507 273.883 505.704 273.883 505.884V515.224H271.513V500.764H273.543C273.663 500.764 273.767 500.767 273.853 500.774C273.94 500.781 274.017 500.797 274.083 500.824C274.157 500.851 274.22 500.894 274.273 500.954C274.333 501.014 274.39 501.094 274.443 501.194L278.773 509.224C278.887 509.437 278.99 509.657 279.083 509.884C279.183 510.111 279.28 510.344 279.373 510.584C279.467 510.337 279.563 510.101 279.663 509.874C279.763 509.641 279.87 509.417 279.983 509.204L284.253 501.194C284.307 501.094 284.363 501.014 284.423 500.954C284.483 500.894 284.547 500.851 284.613 500.824C284.687 500.797 284.767 500.781 284.853 500.774C284.94 500.767 285.043 500.764 285.163 500.764H287.193ZM295.196 510.844C294.482 510.877 293.882 510.941 293.396 511.034C292.909 511.121 292.519 511.234 292.226 511.374C291.932 511.514 291.722 511.677 291.596 511.864C291.469 512.051 291.406 512.254 291.406 512.474C291.406 512.907 291.532 513.217 291.786 513.404C292.046 513.591 292.382 513.684 292.796 513.684C293.302 513.684 293.739 513.594 294.106 513.414C294.479 513.227 294.842 512.947 295.196 512.574V510.844ZM289.536 506.394C290.716 505.314 292.136 504.774 293.796 504.774C294.396 504.774 294.932 504.874 295.406 505.074C295.879 505.267 296.279 505.541 296.606 505.894C296.932 506.241 297.179 506.657 297.346 507.144C297.519 507.631 297.606 508.164 297.606 508.744V515.224H296.486C296.252 515.224 296.072 515.191 295.946 515.124C295.819 515.051 295.719 514.907 295.646 514.694L295.426 513.954C295.166 514.187 294.912 514.394 294.666 514.574C294.419 514.747 294.162 514.894 293.896 515.014C293.629 515.134 293.342 515.224 293.036 515.284C292.736 515.351 292.402 515.384 292.036 515.384C291.602 515.384 291.202 515.327 290.836 515.214C290.469 515.094 290.152 514.917 289.886 514.684C289.619 514.451 289.412 514.161 289.266 513.814C289.119 513.467 289.046 513.064 289.046 512.604C289.046 512.344 289.089 512.087 289.176 511.834C289.262 511.574 289.402 511.327 289.596 511.094C289.796 510.861 290.052 510.641 290.366 510.434C290.679 510.227 291.062 510.047 291.516 509.894C291.976 509.741 292.509 509.617 293.116 509.524C293.722 509.424 294.416 509.364 295.196 509.344V508.744C295.196 508.057 295.049 507.551 294.756 507.224C294.462 506.891 294.039 506.724 293.486 506.724C293.086 506.724 292.752 506.771 292.486 506.864C292.226 506.957 291.996 507.064 291.796 507.184C291.596 507.297 291.412 507.401 291.246 507.494C291.086 507.587 290.906 507.634 290.706 507.634C290.532 507.634 290.386 507.591 290.266 507.504C290.146 507.411 290.049 507.304 289.976 507.184L289.536 506.394ZM306.192 506.964C306.125 507.071 306.055 507.147 305.982 507.194C305.909 507.234 305.815 507.254 305.702 507.254C305.582 507.254 305.452 507.221 305.312 507.154C305.179 507.087 305.022 507.014 304.842 506.934C304.662 506.847 304.455 506.771 304.222 506.704C303.995 506.637 303.725 506.604 303.412 506.604C302.925 506.604 302.542 506.707 302.262 506.914C301.989 507.121 301.852 507.391 301.852 507.724C301.852 507.944 301.922 508.131 302.062 508.284C302.209 508.431 302.399 508.561 302.632 508.674C302.872 508.787 303.142 508.891 303.442 508.984C303.742 509.071 304.045 509.167 304.352 509.274C304.665 509.381 304.972 509.504 305.272 509.644C305.572 509.777 305.839 509.951 306.072 510.164C306.312 510.371 306.502 510.621 306.642 510.914C306.789 511.207 306.862 511.561 306.862 511.974C306.862 512.467 306.772 512.924 306.592 513.344C306.419 513.757 306.159 514.117 305.812 514.424C305.465 514.724 305.035 514.961 304.522 515.134C304.015 515.301 303.429 515.384 302.762 515.384C302.409 515.384 302.062 515.351 301.722 515.284C301.389 515.224 301.065 515.137 300.752 515.024C300.445 514.911 300.159 514.777 299.892 514.624C299.632 514.471 299.402 514.304 299.202 514.124L299.772 513.184C299.845 513.071 299.932 512.984 300.032 512.924C300.132 512.864 300.259 512.834 300.412 512.834C300.565 512.834 300.709 512.877 300.842 512.964C300.982 513.051 301.142 513.144 301.322 513.244C301.502 513.344 301.712 513.437 301.952 513.524C302.199 513.611 302.509 513.654 302.882 513.654C303.175 513.654 303.425 513.621 303.632 513.554C303.845 513.481 304.019 513.387 304.152 513.274C304.292 513.161 304.392 513.031 304.452 512.884C304.519 512.731 304.552 512.574 304.552 512.414C304.552 512.174 304.479 511.977 304.332 511.824C304.192 511.671 304.002 511.537 303.762 511.424C303.529 511.311 303.259 511.211 302.952 511.124C302.652 511.031 302.342 510.931 302.022 510.824C301.709 510.717 301.399 510.594 301.092 510.454C300.792 510.307 300.522 510.124 300.282 509.904C300.049 509.684 299.859 509.414 299.712 509.094C299.572 508.774 299.502 508.387 299.502 507.934C299.502 507.514 299.585 507.114 299.752 506.734C299.919 506.354 300.162 506.024 300.482 505.744C300.809 505.457 301.212 505.231 301.692 505.064C302.179 504.891 302.739 504.804 303.372 504.804C304.079 504.804 304.722 504.921 305.302 505.154C305.882 505.387 306.365 505.694 306.752 506.074L306.192 506.964ZM317.561 504.964V515.224H316.051C315.724 515.224 315.518 515.074 315.431 514.774L315.261 513.954C314.841 514.381 314.378 514.727 313.871 514.994C313.364 515.254 312.768 515.384 312.081 515.384C311.521 515.384 311.024 515.291 310.591 515.104C310.164 514.911 309.804 514.641 309.511 514.294C309.218 513.947 308.994 513.537 308.841 513.064C308.694 512.584 308.621 512.057 308.621 511.484V504.964H311.091V511.484C311.091 512.111 311.234 512.597 311.521 512.944C311.814 513.284 312.251 513.454 312.831 513.454C313.258 513.454 313.658 513.361 314.031 513.174C314.404 512.981 314.758 512.717 315.091 512.384V504.964H317.561ZM322.48 500.364V508.874H322.94C323.107 508.874 323.237 508.854 323.33 508.814C323.43 508.767 323.53 508.677 323.63 508.544L326.18 505.394C326.287 505.254 326.403 505.147 326.53 505.074C326.663 505.001 326.833 504.964 327.04 504.964H329.3L326.11 508.774C325.883 509.074 325.637 509.304 325.37 509.464C325.51 509.564 325.633 509.681 325.74 509.814C325.853 509.947 325.96 510.091 326.06 510.244L329.48 515.224H327.25C327.057 515.224 326.89 515.194 326.75 515.134C326.61 515.067 326.493 514.951 326.4 514.784L323.78 510.894C323.687 510.741 323.59 510.641 323.49 510.594C323.39 510.547 323.24 510.524 323.04 510.524H322.48V515.224H320.01V500.364H322.48Z" fill="#939090"/>
<path d="M79.7179 554.091C79.6326 553.371 79.287 552.812 78.6809 552.415C78.0749 552.017 77.3315 551.818 76.4508 551.818C75.8069 551.818 75.2434 551.922 74.7605 552.131C74.2823 552.339 73.9082 552.625 73.6383 552.99C73.3732 553.355 73.2406 553.769 73.2406 554.233C73.2406 554.621 73.3329 554.955 73.5176 555.234C73.707 555.509 73.9484 555.739 74.242 555.923C74.5356 556.103 74.8433 556.252 75.1653 556.371C75.4873 556.484 75.7832 556.577 76.0531 556.648L77.5304 557.045C77.9092 557.145 78.3306 557.282 78.7946 557.457C79.2633 557.633 79.7108 557.872 80.1369 558.175C80.5678 558.473 80.9229 558.857 81.2022 559.325C81.4816 559.794 81.6213 560.369 81.6213 561.051C81.6213 561.837 81.4153 562.547 81.0034 563.182C80.5962 563.816 79.9996 564.321 79.2136 564.695C78.4324 565.069 77.483 565.256 76.3656 565.256C75.3239 565.256 74.4219 565.088 73.6596 564.751C72.902 564.415 72.3055 563.946 71.8699 563.345C71.439 562.744 71.1951 562.045 71.1383 561.25H72.9565C73.0038 561.799 73.1885 562.254 73.5105 562.614C73.8372 562.969 74.2491 563.234 74.7463 563.409C75.2482 563.58 75.7879 563.665 76.3656 563.665C77.0379 563.665 77.6416 563.556 78.1767 563.338C78.7117 563.116 79.1355 562.808 79.448 562.415C79.7605 562.017 79.9167 561.553 79.9167 561.023C79.9167 560.54 79.7818 560.147 79.5119 559.844C79.242 559.541 78.8869 559.295 78.4466 559.105C78.0062 558.916 77.5304 558.75 77.019 558.608L75.2292 558.097C74.0929 557.77 73.1932 557.304 72.5304 556.697C71.8675 556.091 71.536 555.298 71.536 554.318C71.536 553.504 71.7562 552.794 72.1966 552.188C72.6416 551.577 73.2382 551.103 73.9863 550.767C74.7392 550.426 75.5796 550.256 76.5076 550.256C77.4451 550.256 78.2785 550.424 79.0076 550.76C79.7368 551.091 80.3145 551.546 80.7406 552.124C81.1715 552.701 81.3987 553.357 81.4224 554.091H79.7179ZM84.29 565V554.091H85.9661V565H84.29ZM85.1422 552.273C84.8155 552.273 84.5338 552.161 84.2971 551.939C84.065 551.716 83.949 551.449 83.949 551.136C83.949 550.824 84.065 550.556 84.2971 550.334C84.5338 550.111 84.8155 550 85.1422 550C85.4689 550 85.7483 550.111 85.9803 550.334C86.217 550.556 86.3354 550.824 86.3354 551.136C86.3354 551.449 86.217 551.716 85.9803 551.939C85.7483 552.161 85.4689 552.273 85.1422 552.273ZM90.7122 550.455V565H89.036V550.455H90.7122ZM96.9924 565.256C96.3011 565.256 95.6737 565.125 95.1103 564.865C94.5468 564.6 94.0994 564.219 93.7679 563.722C93.4365 563.22 93.2708 562.614 93.2708 561.903C93.2708 561.278 93.3939 560.772 93.6401 560.384C93.8863 559.991 94.2154 559.683 94.6273 559.46C95.0392 559.238 95.4938 559.072 95.9909 558.963C96.4928 558.849 96.9971 558.759 97.5037 558.693C98.1666 558.608 98.704 558.544 99.1159 558.501C99.5326 558.454 99.8356 558.376 100.025 558.267C100.219 558.158 100.316 557.969 100.316 557.699V557.642C100.316 556.941 100.124 556.397 99.7409 556.009C99.3622 555.62 98.7869 555.426 98.0151 555.426C97.2149 555.426 96.5875 555.601 96.133 555.952C95.6784 556.302 95.3588 556.676 95.1742 557.074L93.5833 556.506C93.8674 555.843 94.2462 555.327 94.7196 554.957C95.1979 554.583 95.7187 554.323 96.2821 554.176C96.8503 554.025 97.409 553.949 97.9583 553.949C98.3087 553.949 98.7111 553.991 99.1657 554.077C99.6249 554.157 100.068 554.325 100.494 554.581C100.925 554.837 101.282 555.223 101.566 555.739C101.85 556.255 101.992 556.946 101.992 557.812V565H100.316V563.523H100.231C100.117 563.759 99.928 564.013 99.6628 564.283C99.3977 564.553 99.0449 564.782 98.6046 564.972C98.1642 565.161 97.6268 565.256 96.9924 565.256ZM97.248 563.75C97.9109 563.75 98.4696 563.62 98.9242 563.359C99.3835 563.099 99.7291 562.763 99.9611 562.351C100.198 561.939 100.316 561.506 100.316 561.051V559.517C100.245 559.602 100.089 559.68 99.8475 559.751C99.6107 559.818 99.3361 559.877 99.0236 559.929C98.7158 559.976 98.4152 560.019 98.1216 560.057C97.8328 560.09 97.5984 560.118 97.4185 560.142C96.9829 560.199 96.5757 560.291 96.1969 560.419C95.8229 560.542 95.5198 560.729 95.2878 560.98C95.0605 561.226 94.9469 561.562 94.9469 561.989C94.9469 562.571 95.1623 563.011 95.5932 563.31C96.0288 563.603 96.5804 563.75 97.248 563.75ZM106.614 561.023L106.586 558.949H106.927L111.699 554.091H113.773L108.688 559.233H108.546L106.614 561.023ZM105.052 565V550.455H106.728V565H105.052ZM111.983 565L107.722 559.602L108.915 558.438L114.114 565H111.983ZM119.141 565.256C118.45 565.256 117.822 565.125 117.259 564.865C116.695 564.6 116.248 564.219 115.916 563.722C115.585 563.22 115.419 562.614 115.419 561.903C115.419 561.278 115.542 560.772 115.789 560.384C116.035 559.991 116.364 559.683 116.776 559.46C117.188 559.238 117.642 559.072 118.139 558.963C118.641 558.849 119.146 558.759 119.652 558.693C120.315 558.608 120.852 558.544 121.264 558.501C121.681 558.454 121.984 558.376 122.173 558.267C122.368 558.158 122.465 557.969 122.465 557.699V557.642C122.465 556.941 122.273 556.397 121.889 556.009C121.511 555.62 120.935 555.426 120.164 555.426C119.363 555.426 118.736 555.601 118.281 555.952C117.827 556.302 117.507 556.676 117.323 557.074L115.732 556.506C116.016 555.843 116.395 555.327 116.868 554.957C117.346 554.583 117.867 554.323 118.431 554.176C118.999 554.025 119.557 553.949 120.107 553.949C120.457 553.949 120.86 553.991 121.314 554.077C121.773 554.157 122.216 554.325 122.642 554.581C123.073 554.837 123.431 555.223 123.715 555.739C123.999 556.255 124.141 556.946 124.141 557.812V565H122.465V563.523H122.379C122.266 563.759 122.076 564.013 121.811 564.283C121.546 564.553 121.193 564.782 120.753 564.972C120.313 565.161 119.775 565.256 119.141 565.256ZM119.396 563.75C120.059 563.75 120.618 563.62 121.073 563.359C121.532 563.099 121.878 562.763 122.11 562.351C122.346 561.939 122.465 561.506 122.465 561.051V559.517C122.394 559.602 122.237 559.68 121.996 559.751C121.759 559.818 121.485 559.877 121.172 559.929C120.864 559.976 120.564 560.019 120.27 560.057C119.981 560.09 119.747 560.118 119.567 560.142C119.131 560.199 118.724 560.291 118.345 560.419C117.971 560.542 117.668 560.729 117.436 560.98C117.209 561.226 117.095 561.562 117.095 561.989C117.095 562.571 117.311 563.011 117.742 563.31C118.177 563.603 118.729 563.75 119.396 563.75ZM128.876 558.438V565H127.2V554.091H128.819V555.795H128.961C129.217 555.241 129.605 554.796 130.126 554.46C130.647 554.119 131.319 553.949 132.143 553.949C132.882 553.949 133.528 554.1 134.082 554.403C134.636 554.702 135.067 555.156 135.375 555.767C135.683 556.373 135.836 557.14 135.836 558.068V565H134.16V558.182C134.16 557.325 133.938 556.657 133.493 556.179C133.048 555.696 132.437 555.455 131.66 555.455C131.125 555.455 130.647 555.571 130.226 555.803C129.809 556.035 129.48 556.373 129.238 556.818C128.997 557.263 128.876 557.803 128.876 558.438ZM148.644 565.227C147.735 565.227 146.932 564.998 146.236 564.538C145.54 564.074 144.995 563.421 144.602 562.578C144.209 561.731 144.013 560.729 144.013 559.574C144.013 558.428 144.209 557.434 144.602 556.591C144.995 555.748 145.542 555.097 146.243 554.638C146.944 554.179 147.753 553.949 148.672 553.949C149.382 553.949 149.943 554.067 150.355 554.304C150.772 554.536 151.089 554.801 151.307 555.099C151.53 555.393 151.702 555.634 151.825 555.824H151.968V550.455H153.644V565H152.024V563.324H151.825C151.702 563.523 151.527 563.774 151.3 564.077C151.073 564.375 150.748 564.643 150.327 564.879C149.905 565.111 149.344 565.227 148.644 565.227ZM148.871 563.722C149.543 563.722 150.111 563.546 150.575 563.196C151.039 562.841 151.392 562.351 151.634 561.726C151.875 561.096 151.996 560.369 151.996 559.545C151.996 558.731 151.878 558.018 151.641 557.408C151.404 556.792 151.054 556.314 150.59 555.973C150.126 555.627 149.553 555.455 148.871 555.455C148.161 555.455 147.569 555.637 147.095 556.001C146.627 556.361 146.274 556.851 146.037 557.472C145.805 558.087 145.689 558.778 145.689 559.545C145.689 560.322 145.807 561.027 146.044 561.662C146.286 562.292 146.641 562.794 147.11 563.168C147.583 563.537 148.17 563.722 148.871 563.722ZM160.156 565.256C159.465 565.256 158.838 565.125 158.274 564.865C157.711 564.6 157.263 564.219 156.932 563.722C156.601 563.22 156.435 562.614 156.435 561.903C156.435 561.278 156.558 560.772 156.804 560.384C157.05 559.991 157.379 559.683 157.791 559.46C158.203 559.238 158.658 559.072 159.155 558.963C159.657 558.849 160.161 558.759 160.668 558.693C161.331 558.608 161.868 558.544 162.28 558.501C162.697 558.454 163 558.376 163.189 558.267C163.383 558.158 163.48 557.969 163.48 557.699V557.642C163.48 556.941 163.289 556.397 162.905 556.009C162.526 555.62 161.951 555.426 161.179 555.426C160.379 555.426 159.752 555.601 159.297 555.952C158.843 556.302 158.523 556.676 158.338 557.074L156.747 556.506C157.031 555.843 157.41 555.327 157.884 554.957C158.362 554.583 158.883 554.323 159.446 554.176C160.014 554.025 160.573 553.949 161.122 553.949C161.473 553.949 161.875 553.991 162.33 554.077C162.789 554.157 163.232 554.325 163.658 554.581C164.089 554.837 164.446 555.223 164.73 555.739C165.014 556.255 165.156 556.946 165.156 557.812V565H163.48V563.523H163.395C163.281 563.759 163.092 564.013 162.827 564.283C162.562 564.553 162.209 564.782 161.769 564.972C161.328 565.161 160.791 565.256 160.156 565.256ZM160.412 563.75C161.075 563.75 161.634 563.62 162.088 563.359C162.548 563.099 162.893 562.763 163.125 562.351C163.362 561.939 163.48 561.506 163.48 561.051V559.517C163.409 559.602 163.253 559.68 163.012 559.751C162.775 559.818 162.5 559.877 162.188 559.929C161.88 559.976 161.579 560.019 161.286 560.057C160.997 560.09 160.762 560.118 160.583 560.142C160.147 560.199 159.74 560.291 159.361 560.419C158.987 560.542 158.684 560.729 158.452 560.98C158.225 561.226 158.111 561.562 158.111 561.989C158.111 562.571 158.326 563.011 158.757 563.31C159.193 563.603 159.744 563.75 160.412 563.75ZM173.074 554.091V555.511H167.193V554.091H173.074ZM168.954 565V552.585C168.954 551.96 169.101 551.439 169.395 551.023C169.688 550.606 170.069 550.294 170.538 550.085C171.007 549.877 171.502 549.773 172.023 549.773C172.434 549.773 172.771 549.806 173.031 549.872C173.291 549.938 173.486 550 173.613 550.057L173.131 551.506C173.045 551.477 172.927 551.442 172.775 551.399C172.629 551.357 172.434 551.335 172.193 551.335C171.639 551.335 171.239 551.475 170.993 551.754C170.751 552.034 170.631 552.443 170.631 552.983V565H168.954ZM180.167 554.091V555.511H174.514V554.091H180.167ZM176.161 551.477H177.838V561.875C177.838 562.348 177.906 562.704 178.044 562.94C178.186 563.172 178.365 563.329 178.583 563.409C178.806 563.485 179.04 563.523 179.286 563.523C179.471 563.523 179.623 563.513 179.741 563.494C179.859 563.471 179.954 563.452 180.025 563.438L180.366 564.943C180.252 564.986 180.094 565.028 179.89 565.071C179.686 565.118 179.428 565.142 179.116 565.142C178.642 565.142 178.178 565.04 177.724 564.837C177.274 564.633 176.9 564.323 176.602 563.906C176.308 563.49 176.161 562.964 176.161 562.33V551.477ZM185.899 565.256C185.207 565.256 184.58 565.125 184.017 564.865C183.453 564.6 183.006 564.219 182.674 563.722C182.343 563.22 182.177 562.614 182.177 561.903C182.177 561.278 182.3 560.772 182.546 560.384C182.793 559.991 183.122 559.683 183.534 559.46C183.945 559.238 184.4 559.072 184.897 558.963C185.399 558.849 185.903 558.759 186.41 558.693C187.073 558.608 187.61 558.544 188.022 558.501C188.439 558.454 188.742 558.376 188.931 558.267C189.125 558.158 189.222 557.969 189.222 557.699V557.642C189.222 556.941 189.031 556.397 188.647 556.009C188.268 555.62 187.693 555.426 186.921 555.426C186.121 555.426 185.494 555.601 185.039 555.952C184.585 556.302 184.265 556.676 184.08 557.074L182.49 556.506C182.774 555.843 183.152 555.327 183.626 554.957C184.104 554.583 184.625 554.323 185.188 554.176C185.757 554.025 186.315 553.949 186.865 553.949C187.215 553.949 187.617 553.991 188.072 554.077C188.531 554.157 188.974 554.325 189.4 554.581C189.831 554.837 190.188 555.223 190.472 555.739C190.757 556.255 190.899 556.946 190.899 557.812V565H189.222V563.523H189.137C189.024 563.759 188.834 564.013 188.569 564.283C188.304 564.553 187.951 564.782 187.511 564.972C187.07 565.161 186.533 565.256 185.899 565.256ZM186.154 563.75C186.817 563.75 187.376 563.62 187.83 563.359C188.29 563.099 188.635 562.763 188.867 562.351C189.104 561.939 189.222 561.506 189.222 561.051V559.517C189.151 559.602 188.995 559.68 188.754 559.751C188.517 559.818 188.242 559.877 187.93 559.929C187.622 559.976 187.321 560.019 187.028 560.057C186.739 560.09 186.505 560.118 186.325 560.142C185.889 560.199 185.482 560.291 185.103 560.419C184.729 560.542 184.426 560.729 184.194 560.98C183.967 561.226 183.853 561.562 183.853 561.989C183.853 562.571 184.069 563.011 184.499 563.31C184.935 563.603 185.487 563.75 186.154 563.75ZM193.958 565V554.091H195.577V555.739H195.691C195.89 555.199 196.25 554.761 196.77 554.425C197.291 554.089 197.878 553.92 198.532 553.92C198.655 553.92 198.809 553.923 198.993 553.928C199.178 553.932 199.318 553.939 199.412 553.949V555.653C199.356 555.639 199.225 555.618 199.022 555.589C198.823 555.556 198.612 555.54 198.39 555.54C197.859 555.54 197.386 555.651 196.969 555.874C196.557 556.091 196.231 556.394 195.989 556.783C195.752 557.166 195.634 557.604 195.634 558.097V565H193.958ZM210.235 565.256C209.543 565.256 208.916 565.125 208.352 564.865C207.789 564.6 207.342 564.219 207.01 563.722C206.679 563.22 206.513 562.614 206.513 561.903C206.513 561.278 206.636 560.772 206.882 560.384C207.128 559.991 207.458 559.683 207.869 559.46C208.281 559.238 208.736 559.072 209.233 558.963C209.735 558.849 210.239 558.759 210.746 558.693C211.409 558.608 211.946 558.544 212.358 558.501C212.775 558.454 213.078 558.376 213.267 558.267C213.461 558.158 213.558 557.969 213.558 557.699V557.642C213.558 556.941 213.367 556.397 212.983 556.009C212.604 555.62 212.029 555.426 211.257 555.426C210.457 555.426 209.83 555.601 209.375 555.952C208.921 556.302 208.601 556.676 208.416 557.074L206.825 556.506C207.11 555.843 207.488 555.327 207.962 554.957C208.44 554.583 208.961 554.323 209.524 554.176C210.093 554.025 210.651 553.949 211.2 553.949C211.551 553.949 211.953 553.991 212.408 554.077C212.867 554.157 213.31 554.325 213.736 554.581C214.167 554.837 214.524 555.223 214.808 555.739C215.093 556.255 215.235 556.946 215.235 557.812V565H213.558V563.523H213.473C213.36 563.759 213.17 564.013 212.905 564.283C212.64 564.553 212.287 564.782 211.847 564.972C211.406 565.161 210.869 565.256 210.235 565.256ZM210.49 563.75C211.153 563.75 211.712 563.62 212.166 563.359C212.626 563.099 212.971 562.763 213.203 562.351C213.44 561.939 213.558 561.506 213.558 561.051V559.517C213.487 559.602 213.331 559.68 213.09 559.751C212.853 559.818 212.578 559.877 212.266 559.929C211.958 559.976 211.657 560.019 211.364 560.057C211.075 560.09 210.841 560.118 210.661 560.142C210.225 560.199 209.818 560.291 209.439 560.419C209.065 560.542 208.762 560.729 208.53 560.98C208.303 561.226 208.189 561.562 208.189 561.989C208.189 562.571 208.405 563.011 208.835 563.31C209.271 563.603 209.823 563.75 210.49 563.75ZM223.038 554.091V555.511H217.385V554.091H223.038ZM219.032 551.477H220.709V561.875C220.709 562.348 220.777 562.704 220.915 562.94C221.057 563.172 221.237 563.329 221.454 563.409C221.677 563.485 221.911 563.523 222.157 563.523C222.342 563.523 222.494 563.513 222.612 563.494C222.73 563.471 222.825 563.452 222.896 563.438L223.237 564.943C223.123 564.986 222.965 565.028 222.761 565.071C222.558 565.118 222.3 565.142 221.987 565.142C221.514 565.142 221.05 565.04 220.595 564.837C220.145 564.633 219.771 564.323 219.473 563.906C219.179 563.49 219.032 562.964 219.032 562.33V551.477ZM228.77 565.256C228.078 565.256 227.451 565.125 226.888 564.865C226.324 564.6 225.877 564.219 225.545 563.722C225.214 563.22 225.048 562.614 225.048 561.903C225.048 561.278 225.171 560.772 225.417 560.384C225.664 559.991 225.993 559.683 226.405 559.46C226.817 559.238 227.271 559.072 227.768 558.963C228.27 558.849 228.774 558.759 229.281 558.693C229.944 558.608 230.481 558.544 230.893 558.501C231.31 558.454 231.613 558.376 231.802 558.267C231.997 558.158 232.094 557.969 232.094 557.699V557.642C232.094 556.941 231.902 556.397 231.518 556.009C231.14 555.62 230.564 555.426 229.792 555.426C228.992 555.426 228.365 555.601 227.91 555.952C227.456 556.302 227.136 556.676 226.952 557.074L225.361 556.506C225.645 555.843 226.023 555.327 226.497 554.957C226.975 554.583 227.496 554.323 228.059 554.176C228.628 554.025 229.186 553.949 229.736 553.949C230.086 553.949 230.488 553.991 230.943 554.077C231.402 554.157 231.845 554.325 232.271 554.581C232.702 554.837 233.059 555.223 233.344 555.739C233.628 556.255 233.77 556.946 233.77 557.812V565H232.094V563.523H232.008C231.895 563.759 231.705 564.013 231.44 564.283C231.175 564.553 230.822 564.782 230.382 564.972C229.942 565.161 229.404 565.256 228.77 565.256ZM229.025 563.75C229.688 563.75 230.247 563.62 230.702 563.359C231.161 563.099 231.506 562.763 231.738 562.351C231.975 561.939 232.094 561.506 232.094 561.051V559.517C232.023 559.602 231.866 559.68 231.625 559.751C231.388 559.818 231.113 559.877 230.801 559.929C230.493 559.976 230.193 560.019 229.899 560.057C229.61 560.09 229.376 560.118 229.196 560.142C228.76 560.199 228.353 560.291 227.974 560.419C227.6 560.542 227.297 560.729 227.065 560.98C226.838 561.226 226.724 561.562 226.724 561.989C226.724 562.571 226.94 563.011 227.371 563.31C227.806 563.603 228.358 563.75 229.025 563.75ZM243.704 560.54V554.091H245.38V565H243.704V563.153H243.59C243.335 563.707 242.937 564.179 242.397 564.567C241.857 564.95 241.176 565.142 240.352 565.142C239.67 565.142 239.064 564.993 238.534 564.695C238.003 564.392 237.587 563.937 237.284 563.331C236.981 562.72 236.829 561.951 236.829 561.023V554.091H238.505V560.909C238.505 561.705 238.728 562.339 239.173 562.812C239.623 563.286 240.195 563.523 240.892 563.523C241.308 563.523 241.732 563.416 242.163 563.203C242.598 562.99 242.963 562.663 243.257 562.223C243.555 561.783 243.704 561.222 243.704 560.54ZM254.075 565V554.091H255.694V555.795H255.836C256.064 555.213 256.431 554.761 256.937 554.439C257.444 554.112 258.052 553.949 258.763 553.949C259.482 553.949 260.081 554.112 260.559 554.439C261.042 554.761 261.419 555.213 261.689 555.795H261.802C262.082 555.232 262.501 554.785 263.059 554.453C263.618 554.117 264.288 553.949 265.069 553.949C266.045 553.949 266.843 554.254 267.463 554.865C268.083 555.471 268.393 556.416 268.393 557.699V565H266.717V557.699C266.717 556.894 266.497 556.319 266.057 555.973C265.616 555.627 265.098 555.455 264.501 555.455C263.734 555.455 263.14 555.687 262.719 556.151C262.297 556.61 262.086 557.192 262.086 557.898V565H260.382V557.528C260.382 556.908 260.181 556.409 259.778 556.03C259.376 555.646 258.857 555.455 258.223 555.455C257.787 555.455 257.38 555.571 257.001 555.803C256.627 556.035 256.324 556.357 256.092 556.768C255.865 557.176 255.751 557.647 255.751 558.182V565H254.075ZM274.668 565.256C273.977 565.256 273.349 565.125 272.786 564.865C272.223 564.6 271.775 564.219 271.444 563.722C271.112 563.22 270.947 562.614 270.947 561.903C270.947 561.278 271.07 560.772 271.316 560.384C271.562 559.991 271.891 559.683 272.303 559.46C272.715 559.238 273.17 559.072 273.667 558.963C274.169 558.849 274.673 558.759 275.18 558.693C275.842 558.608 276.38 558.544 276.792 558.501C277.208 558.454 277.511 558.376 277.701 558.267C277.895 558.158 277.992 557.969 277.992 557.699V557.642C277.992 556.941 277.8 556.397 277.417 556.009C277.038 555.62 276.463 555.426 275.691 555.426C274.891 555.426 274.263 555.601 273.809 555.952C273.354 556.302 273.035 556.676 272.85 557.074L271.259 556.506C271.543 555.843 271.922 555.327 272.395 554.957C272.874 554.583 273.394 554.323 273.958 554.176C274.526 554.025 275.085 553.949 275.634 553.949C275.984 553.949 276.387 553.991 276.841 554.077C277.301 554.157 277.743 554.325 278.17 554.581C278.6 554.837 278.958 555.223 279.242 555.739C279.526 556.255 279.668 556.946 279.668 557.812V565H277.992V563.523H277.907C277.793 563.759 277.604 564.013 277.339 564.283C277.073 564.553 276.721 564.782 276.28 564.972C275.84 565.161 275.303 565.256 274.668 565.256ZM274.924 563.75C275.587 563.75 276.145 563.62 276.6 563.359C277.059 563.099 277.405 562.763 277.637 562.351C277.874 561.939 277.992 561.506 277.992 561.051V559.517C277.921 559.602 277.765 559.68 277.523 559.751C277.287 559.818 277.012 559.877 276.699 559.929C276.392 559.976 276.091 560.019 275.797 560.057C275.509 560.09 275.274 560.118 275.094 560.142C274.659 560.199 274.251 560.291 273.873 560.419C273.499 560.542 273.196 560.729 272.964 560.98C272.736 561.226 272.623 561.562 272.623 561.989C272.623 562.571 272.838 563.011 273.269 563.31C273.705 563.603 274.256 563.75 274.924 563.75ZM290.455 556.534L288.949 556.96C288.854 556.709 288.715 556.465 288.53 556.229C288.35 555.987 288.104 555.788 287.791 555.632C287.479 555.476 287.079 555.398 286.591 555.398C285.923 555.398 285.367 555.552 284.922 555.859C284.482 556.162 284.262 556.548 284.262 557.017C284.262 557.434 284.413 557.763 284.716 558.004C285.019 558.246 285.493 558.447 286.137 558.608L287.756 559.006C288.731 559.242 289.458 559.605 289.936 560.092C290.414 560.575 290.654 561.198 290.654 561.96C290.654 562.585 290.474 563.144 290.114 563.636C289.759 564.129 289.262 564.517 288.622 564.801C287.983 565.085 287.24 565.227 286.392 565.227C285.28 565.227 284.359 564.986 283.629 564.503C282.9 564.02 282.439 563.314 282.244 562.386L283.835 561.989C283.987 562.576 284.273 563.016 284.695 563.31C285.121 563.603 285.677 563.75 286.364 563.75C287.145 563.75 287.765 563.584 288.225 563.253C288.689 562.917 288.921 562.514 288.921 562.045C288.921 561.667 288.788 561.349 288.523 561.094C288.258 560.833 287.851 560.639 287.301 560.511L285.483 560.085C284.484 559.848 283.75 559.482 283.281 558.984C282.817 558.482 282.585 557.855 282.585 557.102C282.585 556.487 282.758 555.942 283.104 555.469C283.454 554.995 283.93 554.624 284.531 554.354C285.137 554.084 285.824 553.949 286.591 553.949C287.671 553.949 288.518 554.186 289.134 554.659C289.754 555.133 290.194 555.758 290.455 556.534ZM300.052 560.54V554.091H301.728V565H300.052V563.153H299.938C299.682 563.707 299.285 564.179 298.745 564.567C298.205 564.95 297.523 565.142 296.699 565.142C296.018 565.142 295.412 564.993 294.881 564.695C294.351 564.392 293.934 563.937 293.631 563.331C293.328 562.72 293.177 561.951 293.177 561.023V554.091H294.853V560.909C294.853 561.705 295.075 562.339 295.52 562.812C295.97 563.286 296.543 563.523 297.239 563.523C297.656 563.523 298.08 563.416 298.51 563.203C298.946 562.99 299.311 562.663 299.604 562.223C299.903 561.783 300.052 561.222 300.052 560.54ZM306.36 561.023L306.332 558.949H306.673L311.445 554.091H313.519L308.434 559.233H308.292L306.36 561.023ZM304.798 565V550.455H306.474V565H304.798ZM311.73 565L307.468 559.602L308.661 558.438L313.86 565H311.73ZM326.046 554.091V555.511H320.393V554.091H326.046ZM322.04 551.477H323.716V561.875C323.716 562.348 323.785 562.704 323.922 562.94C324.064 563.172 324.244 563.329 324.462 563.409C324.685 563.485 324.919 563.523 325.165 563.523C325.35 563.523 325.501 563.513 325.62 563.494C325.738 563.471 325.833 563.452 325.904 563.438L326.245 564.943C326.131 564.986 325.973 565.028 325.769 565.071C325.565 565.118 325.307 565.142 324.995 565.142C324.521 565.142 324.057 565.04 323.603 564.837C323.153 564.633 322.779 564.323 322.481 563.906C322.187 563.49 322.04 562.964 322.04 562.33V551.477ZM333.024 565.227C331.973 565.227 331.066 564.995 330.304 564.531C329.546 564.062 328.961 563.409 328.55 562.571C328.142 561.728 327.939 560.748 327.939 559.631C327.939 558.513 328.142 557.528 328.55 556.676C328.961 555.819 329.534 555.152 330.268 554.673C331.007 554.19 331.869 553.949 332.854 553.949C333.422 553.949 333.983 554.044 334.537 554.233C335.091 554.422 335.595 554.73 336.05 555.156C336.504 555.578 336.866 556.136 337.136 556.832C337.406 557.528 337.541 558.385 337.541 559.403V560.114H329.132V558.665H335.836C335.836 558.049 335.713 557.5 335.467 557.017C335.226 556.534 334.88 556.153 334.43 555.874C333.985 555.594 333.46 555.455 332.854 555.455C332.186 555.455 331.608 555.62 331.121 555.952C330.638 556.278 330.266 556.705 330.006 557.23C329.745 557.756 329.615 558.319 329.615 558.92V559.886C329.615 560.71 329.757 561.409 330.041 561.982C330.33 562.55 330.73 562.983 331.241 563.281C331.753 563.575 332.347 563.722 333.024 563.722C333.464 563.722 333.862 563.66 334.217 563.537C334.577 563.409 334.887 563.22 335.148 562.969C335.408 562.713 335.609 562.396 335.751 562.017L337.371 562.472C337.2 563.021 336.914 563.504 336.511 563.92C336.109 564.332 335.612 564.654 335.02 564.886C334.428 565.114 333.763 565.227 333.024 565.227ZM340.091 565V554.091H341.71V555.739H341.824C342.023 555.199 342.382 554.761 342.903 554.425C343.424 554.089 344.011 553.92 344.665 553.92C344.788 553.92 344.942 553.923 345.126 553.928C345.311 553.932 345.451 553.939 345.545 553.949V555.653C345.488 555.639 345.358 555.618 345.155 555.589C344.956 555.556 344.745 555.54 344.523 555.54C343.992 555.54 343.519 555.651 343.102 555.874C342.69 556.091 342.363 556.394 342.122 556.783C341.885 557.166 341.767 557.604 341.767 558.097V565H340.091ZM349.208 550.455V565H347.532V550.455H349.208ZM356.852 565.227C355.801 565.227 354.894 564.995 354.132 564.531C353.374 564.062 352.79 563.409 352.378 562.571C351.97 561.728 351.767 560.748 351.767 559.631C351.767 558.513 351.97 557.528 352.378 556.676C352.79 555.819 353.363 555.152 354.096 554.673C354.835 554.19 355.697 553.949 356.682 553.949C357.25 553.949 357.811 554.044 358.365 554.233C358.919 554.422 359.423 554.73 359.878 555.156C360.332 555.578 360.694 556.136 360.964 556.832C361.234 557.528 361.369 558.385 361.369 559.403V560.114H352.96V558.665H359.665C359.665 558.049 359.541 557.5 359.295 557.017C359.054 556.534 358.708 556.153 358.258 555.874C357.813 555.594 357.288 555.455 356.682 555.455C356.014 555.455 355.436 555.62 354.949 555.952C354.466 556.278 354.094 556.705 353.834 557.23C353.573 557.756 353.443 558.319 353.443 558.92V559.886C353.443 560.71 353.585 561.409 353.869 561.982C354.158 562.55 354.558 562.983 355.069 563.281C355.581 563.575 356.175 563.722 356.852 563.722C357.292 563.722 357.69 563.66 358.045 563.537C358.405 563.409 358.715 563.22 358.976 562.969C359.236 562.713 359.437 562.396 359.579 562.017L361.199 562.472C361.028 563.021 360.742 563.504 360.339 563.92C359.937 564.332 359.44 564.654 358.848 564.886C358.256 565.114 357.591 565.227 356.852 565.227ZM364.146 565V550.455H365.822V555.824H365.964C366.087 555.634 366.258 555.393 366.476 555.099C366.698 554.801 367.015 554.536 367.427 554.304C367.844 554.067 368.407 553.949 369.118 553.949C370.036 553.949 370.846 554.179 371.547 554.638C372.247 555.097 372.794 555.748 373.187 556.591C373.58 557.434 373.777 558.428 373.777 559.574C373.777 560.729 373.58 561.731 373.187 562.578C372.794 563.421 372.25 564.074 371.554 564.538C370.858 564.998 370.055 565.227 369.146 565.227C368.445 565.227 367.884 565.111 367.463 564.879C367.041 564.643 366.717 564.375 366.49 564.077C366.263 563.774 366.087 563.523 365.964 563.324H365.765V565H364.146ZM365.794 559.545C365.794 560.369 365.915 561.096 366.156 561.726C366.398 562.351 366.75 562.841 367.214 563.196C367.678 563.546 368.247 563.722 368.919 563.722C369.62 563.722 370.204 563.537 370.673 563.168C371.147 562.794 371.502 562.292 371.738 561.662C371.98 561.027 372.101 560.322 372.101 559.545C372.101 558.778 371.982 558.087 371.746 557.472C371.514 556.851 371.161 556.361 370.687 556.001C370.219 555.637 369.629 555.455 368.919 555.455C368.237 555.455 367.664 555.627 367.2 555.973C366.736 556.314 366.386 556.792 366.149 557.408C365.912 558.018 365.794 558.731 365.794 559.545ZM376.341 565V554.091H378.017V565H376.341ZM377.193 552.273C376.866 552.273 376.585 552.161 376.348 551.939C376.116 551.716 376 551.449 376 551.136C376 550.824 376.116 550.556 376.348 550.334C376.585 550.111 376.866 550 377.193 550C377.52 550 377.799 550.111 378.031 550.334C378.268 550.556 378.386 550.824 378.386 551.136C378.386 551.449 378.268 551.716 378.031 551.939C377.799 552.161 377.52 552.273 377.193 552.273ZM382.763 558.438V565H381.087V550.455H382.763V555.795H382.905C383.161 555.232 383.544 554.785 384.056 554.453C384.572 554.117 385.258 553.949 386.115 553.949C386.859 553.949 387.51 554.098 388.068 554.396C388.627 554.69 389.06 555.142 389.368 555.753C389.681 556.359 389.837 557.131 389.837 558.068V565H388.161V558.182C388.161 557.315 387.936 556.645 387.486 556.172C387.041 555.694 386.423 555.455 385.632 555.455C385.083 555.455 384.591 555.571 384.155 555.803C383.724 556.035 383.383 556.373 383.132 556.818C382.886 557.263 382.763 557.803 382.763 558.438ZM402.648 565.227C401.738 565.227 400.936 564.998 400.24 564.538C399.544 564.074 398.999 563.421 398.606 562.578C398.213 561.731 398.017 560.729 398.017 559.574C398.017 558.428 398.213 557.434 398.606 556.591C398.999 555.748 399.546 555.097 400.247 554.638C400.948 554.179 401.757 553.949 402.676 553.949C403.386 553.949 403.947 554.067 404.359 554.304C404.776 554.536 405.093 554.801 405.311 555.099C405.533 555.393 405.706 555.634 405.829 555.824H405.971V550.455H407.648V565H406.028V563.324H405.829C405.706 563.523 405.531 563.774 405.304 564.077C405.077 564.375 404.752 564.643 404.331 564.879C403.909 565.111 403.348 565.227 402.648 565.227ZM402.875 563.722C403.547 563.722 404.115 563.546 404.579 563.196C405.043 562.841 405.396 562.351 405.638 561.726C405.879 561.096 406 560.369 406 559.545C406 558.731 405.881 558.018 405.645 557.408C405.408 556.792 405.058 556.314 404.594 555.973C404.13 555.627 403.557 555.455 402.875 555.455C402.165 555.455 401.573 555.637 401.099 556.001C400.631 556.361 400.278 556.851 400.041 557.472C399.809 558.087 399.693 558.778 399.693 559.545C399.693 560.322 399.811 561.027 400.048 561.662C400.29 562.292 400.645 562.794 401.113 563.168C401.587 563.537 402.174 563.722 402.875 563.722ZM414.16 565.256C413.469 565.256 412.842 565.125 412.278 564.865C411.715 564.6 411.267 564.219 410.936 563.722C410.604 563.22 410.439 562.614 410.439 561.903C410.439 561.278 410.562 560.772 410.808 560.384C411.054 559.991 411.383 559.683 411.795 559.46C412.207 559.238 412.662 559.072 413.159 558.963C413.661 558.849 414.165 558.759 414.672 558.693C415.335 558.608 415.872 558.544 416.284 558.501C416.701 558.454 417.004 558.376 417.193 558.267C417.387 558.158 417.484 557.969 417.484 557.699V557.642C417.484 556.941 417.292 556.397 416.909 556.009C416.53 555.62 415.955 555.426 415.183 555.426C414.383 555.426 413.756 555.601 413.301 555.952C412.846 556.302 412.527 556.676 412.342 557.074L410.751 556.506C411.035 555.843 411.414 555.327 411.888 554.957C412.366 554.583 412.887 554.323 413.45 554.176C414.018 554.025 414.577 553.949 415.126 553.949C415.477 553.949 415.879 553.991 416.334 554.077C416.793 554.157 417.236 554.325 417.662 554.581C418.093 554.837 418.45 555.223 418.734 555.739C419.018 556.255 419.16 556.946 419.16 557.812V565H417.484V563.523H417.399C417.285 563.759 417.096 564.013 416.831 564.283C416.566 564.553 416.213 564.782 415.773 564.972C415.332 565.161 414.795 565.256 414.16 565.256ZM414.416 563.75C415.079 563.75 415.638 563.62 416.092 563.359C416.551 563.099 416.897 562.763 417.129 562.351C417.366 561.939 417.484 561.506 417.484 561.051V559.517C417.413 559.602 417.257 559.68 417.015 559.751C416.779 559.818 416.504 559.877 416.192 559.929C415.884 559.976 415.583 560.019 415.29 560.057C415.001 560.09 414.766 560.118 414.586 560.142C414.151 560.199 413.744 560.291 413.365 560.419C412.991 560.542 412.688 560.729 412.456 560.98C412.229 561.226 412.115 561.562 412.115 561.989C412.115 562.571 412.33 563.011 412.761 563.31C413.197 563.603 413.748 563.75 414.416 563.75ZM423.896 558.438V565H422.22V550.455H423.896V555.795H424.038C424.294 555.232 424.677 554.785 425.188 554.453C425.704 554.117 426.391 553.949 427.248 553.949C427.991 553.949 428.642 554.098 429.201 554.396C429.76 554.69 430.193 555.142 430.501 555.753C430.813 556.359 430.97 557.131 430.97 558.068V565H429.294V558.182C429.294 557.315 429.069 556.645 428.619 556.172C428.174 555.694 427.556 555.455 426.765 555.455C426.216 555.455 425.723 555.571 425.288 555.803C424.857 556.035 424.516 556.373 424.265 556.818C424.019 557.263 423.896 557.803 423.896 558.438ZM440.911 560.54V554.091H442.587V565H440.911V563.153H440.797C440.542 563.707 440.144 564.179 439.604 564.567C439.064 564.95 438.383 565.142 437.559 565.142C436.877 565.142 436.271 564.993 435.741 564.695C435.21 564.392 434.794 563.937 434.491 563.331C434.188 562.72 434.036 561.951 434.036 561.023V554.091H435.712V560.909C435.712 561.705 435.935 562.339 436.38 562.812C436.83 563.286 437.403 563.523 438.099 563.523C438.515 563.523 438.939 563.416 439.37 563.203C439.805 562.99 440.17 562.663 440.464 562.223C440.762 561.783 440.911 561.222 440.911 560.54ZM447.333 550.455V565H445.657V550.455H447.333ZM457.278 560.54V554.091H458.954V565H457.278V563.153H457.165C456.909 563.707 456.511 564.179 455.971 564.567C455.432 564.95 454.75 565.142 453.926 565.142C453.244 565.142 452.638 564.993 452.108 564.695C451.577 564.392 451.161 563.937 450.858 563.331C450.555 562.72 450.403 561.951 450.403 561.023V554.091H452.079V560.909C452.079 561.705 452.302 562.339 452.747 562.812C453.197 563.286 453.77 563.523 454.466 563.523C454.882 563.523 455.306 563.416 455.737 563.203C456.173 562.99 456.537 562.663 456.831 562.223C457.129 561.783 457.278 561.222 457.278 560.54ZM463.246 565.114C462.896 565.114 462.595 564.988 462.344 564.737C462.093 564.486 461.968 564.186 461.968 563.835C461.968 563.485 462.093 563.184 462.344 562.933C462.595 562.682 462.896 562.557 463.246 562.557C463.596 562.557 463.897 562.682 464.148 562.933C464.399 563.184 464.524 563.485 464.524 563.835C464.524 564.067 464.465 564.28 464.347 564.474C464.233 564.669 464.079 564.825 463.885 564.943C463.696 565.057 463.483 565.114 463.246 565.114Z" fill="#A0A0A0"/>
<path d="M343.581 115.013C345.125 115.013 346.376 113.76 346.376 112.215C346.376 110.67 345.125 109.417 343.581 109.417C342.038 109.417 340.786 110.67 340.786 112.215C340.786 113.76 342.038 115.013 343.581 115.013Z" fill="#CFCFCF"/>
<path d="M363.053 308.482C364.597 308.482 365.848 307.229 365.848 305.684C365.848 304.139 364.597 302.887 363.053 302.887C361.509 302.887 360.258 304.139 360.258 305.684C360.258 307.229 361.509 308.482 363.053 308.482Z" fill="#CFCFCF"/>
<path d="M325.994 212.643C302.063 212.643 277.754 211.669 255.017 205.351C232.279 199.033 212.305 187.119 193.901 173.195C181.935 164.111 171.006 156.913 155.523 158.013C140.337 158.822 125.814 164.497 114.098 174.201C94.2183 191.52 97.3588 223.55 105.21 246.056C117.082 280.003 153.23 303.547 183.945 318.917C219.434 336.645 258.408 346.955 297.509 352.896C332.055 358.114 375.804 361.886 405.482 339.474C432.774 318.917 440.249 271.925 433.559 240.21C431.94 230.836 426.96 222.375 419.552 216.415C400.395 202.396 371.815 211.763 350.271 212.234C342.325 212.423 334.16 212.612 325.994 212.643Z" fill="#F2F2F2"/>
<path d="M420.902 167.348V179.67" stroke="#BABABA" stroke-linecap="round" stroke-linejoin="round"/>
<path d="M414.778 173.509H427.058" stroke="#BABABA" stroke-linecap="round" stroke-linejoin="round"/>
<path d="M267.515 408.47C325.396 408.47 372.317 405.542 372.317 401.932C372.317 398.321 325.396 395.394 267.515 395.394C209.635 395.394 162.714 398.321 162.714 401.932C162.714 405.542 209.635 408.47 267.515 408.47Z" fill="#F2F2F2"/>
<path d="M383.745 170.497L166.762 151.268C160.473 150.711 154.924 155.361 154.367 161.656L140.858 314.356C140.301 320.651 144.948 326.205 151.237 326.762L368.219 345.991C374.508 346.549 380.058 341.898 380.615 335.603L394.124 182.903C394.681 176.609 390.034 171.054 383.745 170.497Z" fill="white" stroke="#BABABA" stroke-linecap="round" stroke-linejoin="round"/>
<path d="M331.31 226.327L208.616 215.454C205.748 215.2 203.217 217.321 202.963 220.192L202.207 228.739C201.953 231.61 204.072 234.143 206.94 234.397L329.634 245.27C332.502 245.524 335.033 243.403 335.287 240.533L336.043 231.985C336.297 229.115 334.178 226.582 331.31 226.327Z" fill="white" stroke="#BABABA" stroke-linecap="round" stroke-linejoin="round"/>
<path d="M328.037 263.237L205.342 252.364C202.474 252.11 199.944 254.231 199.69 257.101L198.933 265.649C198.679 268.52 200.799 271.053 203.667 271.307L326.361 282.18C329.229 282.434 331.76 280.313 332.014 277.443L332.77 268.895C333.024 266.024 330.905 263.491 328.037 263.237Z" fill="white" stroke="#BABABA" stroke-linecap="round" stroke-linejoin="round"/>
<path d="M284.227 297.212L242.526 293.516C240.332 293.322 238.395 294.944 238.201 297.14L237.229 308.13C237.034 310.327 238.656 312.264 240.85 312.459L282.551 316.154C284.745 316.349 286.681 314.726 286.876 312.53L287.848 301.54C288.042 299.344 286.421 297.406 284.227 297.212Z" fill="#D2D2D2"/>
<path d="M303.884 159.899C303.884 167.098 301.751 174.135 297.754 180.121C293.758 186.107 288.078 190.772 281.433 193.527C274.788 196.282 267.475 197.003 260.42 195.599C253.366 194.194 246.886 190.727 241.799 185.637C236.713 180.546 233.25 174.061 231.846 167C230.443 159.939 231.163 152.62 233.916 145.969C236.668 139.318 241.33 133.633 247.311 129.634C253.291 125.634 260.323 123.5 267.516 123.5C272.298 123.475 277.039 124.399 281.462 126.219C285.886 128.04 289.905 130.72 293.287 134.105C296.669 137.49 299.347 141.512 301.166 145.94C302.985 150.367 303.909 155.112 303.884 159.899Z" fill="white" stroke="#BABABA" stroke-linecap="round" stroke-linejoin="round"/>
<path d="M295.216 183.568C291.808 187.551 287.579 190.748 282.819 192.94C278.059 195.132 272.881 196.267 267.642 196.267C262.402 196.267 257.225 195.132 252.465 192.94C247.705 190.748 243.476 187.551 240.067 183.568C240.54 176.57 243.65 170.013 248.769 165.224C253.888 160.435 260.634 157.771 267.642 157.771C274.649 157.771 281.395 160.435 286.514 165.224C291.634 170.013 294.744 176.57 295.216 183.568Z" fill="#D2D2D2"/>
<path d="M267.515 152.261C274.106 152.261 279.45 146.913 279.45 140.316C279.45 133.719 274.106 128.372 267.515 128.372C260.924 128.372 255.581 133.719 255.581 140.316C255.581 146.913 260.924 152.261 267.515 152.261Z" fill="#D2D2D2"/>
<path d="M236.33 232.886C239.313 232.886 241.731 230.465 241.731 227.479C241.731 224.493 239.313 222.073 236.33 222.073C233.346 222.073 230.928 224.493 230.928 227.479C230.928 230.465 233.346 232.886 236.33 232.886Z" fill="#D2D2D2"/>
<path d="M258.188 234.803C261.171 234.803 263.59 232.383 263.59 229.397C263.59 226.411 261.171 223.99 258.188 223.99C255.205 223.99 252.786 226.411 252.786 229.397C252.786 232.383 255.205 234.803 258.188 234.803Z" fill="#D2D2D2"/>
<path d="M280.046 236.752C283.03 236.752 285.448 234.331 285.448 231.345C285.448 228.36 283.03 225.939 280.046 225.939C277.063 225.939 274.645 228.36 274.645 231.345C274.645 234.331 277.063 236.752 280.046 236.752Z" fill="#D2D2D2"/>
<path d="M301.905 238.669C304.888 238.669 307.307 236.249 307.307 233.263C307.307 230.277 304.888 227.856 301.905 227.856C298.921 227.856 296.503 230.277 296.503 233.263C296.503 236.249 298.921 238.669 301.905 238.669Z" fill="#D2D2D2"/>
</svg>
