<svg width="371" height="348" viewBox="0 0 371 348" fill="none" xmlns="http://www.w3.org/2000/svg">
<path d="M249.524 132.074C223.237 132.074 196.479 131.007 171.449 124.039C146.889 117.228 124.34 104.014 104.24 88.7293C91.081 78.7798 79.1153 70.8704 62.0305 72.0631C45.3022 72.9784 29.313 79.2512 16.4291 89.9534C-5.30381 108.785 -2.03759 144.032 6.66185 168.796C19.7267 206.083 59.4866 231.914 93.2794 248.8C132.317 268.291 175.217 279.59 218.212 286.118C255.899 291.831 304.327 296.005 336.989 271.398C366.982 248.8 375.21 197.201 367.861 162.362C366.08 152.06 360.597 142.763 352.441 136.217C331.368 120.838 299.93 131.101 276.25 131.634C267.457 131.823 258.506 132.043 249.524 132.074Z" fill="#F2F2F2"/>
<path d="M185.205 347.165C248.878 347.165 300.496 343.947 300.496 339.977C300.496 336.008 248.878 332.79 185.205 332.79C121.531 332.79 69.9136 336.008 69.9136 339.977C69.9136 343.947 121.531 347.165 185.205 347.165Z" fill="#F2F2F2"/>
<path d="M303.008 93.7197V107.247" stroke="#BABABA" stroke-linecap="round" stroke-linejoin="round"/>
<path d="M296.256 100.499H309.761" stroke="#BABABA" stroke-linecap="round" stroke-linejoin="round"/>
<path d="M76.1946 207.401V220.897" stroke="#BABABA" stroke-linecap="round" stroke-linejoin="round"/>
<path d="M69.4111 214.149H82.9471" stroke="#BABABA" stroke-linecap="round" stroke-linejoin="round"/>
<path d="M57.2568 37.4753V50.9715" stroke="#BABABA" stroke-linecap="round" stroke-linejoin="round"/>
<path d="M50.4731 44.2234H64.0091" stroke="#BABABA" stroke-linecap="round" stroke-linejoin="round"/>
<path d="M204.425 6.15173C206.125 6.15173 207.503 4.77462 207.503 3.07586C207.503 1.37711 206.125 0 204.425 0C202.725 0 201.347 1.37711 201.347 3.07586C201.347 4.77462 202.725 6.15173 204.425 6.15173Z" fill="#CFCFCF"/>
<path d="M197.076 306.206C198.776 306.206 200.154 304.828 200.154 303.13C200.154 301.431 198.776 300.054 197.076 300.054C195.376 300.054 193.998 301.431 193.998 303.13C193.998 304.828 195.376 306.206 197.076 306.206Z" fill="#CFCFCF"/>
<path d="M263.171 20.8298L84.0533 39.423C79.9645 39.8475 76.9942 43.5041 77.4189 47.5903L101.916 283.289C102.341 287.376 106 290.344 110.088 289.92L289.206 271.326C293.295 270.902 296.265 267.245 295.841 263.159L271.344 27.46C270.919 23.3738 267.26 20.4053 263.171 20.8298Z" fill="#D2D2D2"/>
<path d="M255.464 31.7092L93.8077 48.4898C89.7189 48.9142 86.7486 52.5708 87.1733 56.6571L109.328 269.817C109.752 273.903 113.411 276.871 117.5 276.447L279.156 259.666C283.245 259.242 286.215 255.585 285.79 251.499L263.636 38.3394C263.211 34.2532 259.552 31.2847 255.464 31.7092Z" fill="white" stroke="#BABABA" stroke-linecap="round" stroke-linejoin="round"/>
<path d="M227.571 42.1518L225.059 17.9843C224.933 16.9812 224.418 16.0675 223.625 15.4396C222.833 14.8116 221.825 14.5195 220.819 14.626L190.921 17.7646C190.677 15.3534 189.961 13.0137 188.813 10.8791C187.665 8.74451 186.107 6.85681 184.229 5.32378C182.351 3.79076 180.189 2.64244 177.867 1.94438C175.545 1.24632 173.108 1.0122 170.695 1.25538C168.283 1.49856 165.941 2.21428 163.805 3.36168C161.669 4.50908 159.781 6.06569 158.247 7.94262C155.149 11.7333 153.684 16.5986 154.176 21.4682L124.183 24.6068C123.678 24.6578 123.187 24.8079 122.74 25.0486C122.293 25.2892 121.897 25.6157 121.576 26.0093C121.255 26.4029 121.015 26.8558 120.87 27.3422C120.724 27.8287 120.676 28.339 120.728 28.844L123.241 53.0115C123.292 53.5167 123.442 54.0068 123.683 54.4538C123.924 54.9008 124.25 55.296 124.644 55.6167C125.038 55.9374 125.491 56.1773 125.978 56.3227C126.465 56.4681 126.975 56.5161 127.481 56.464L224.148 46.4204C224.655 46.3698 225.147 46.2185 225.595 45.9755C226.043 45.7324 226.438 45.4025 226.757 45.0049C227.076 44.6074 227.312 44.1503 227.452 43.6604C227.592 43.1705 227.632 42.6576 227.571 42.1518Z" fill="white" stroke="#BABABA" stroke-linecap="round" stroke-linejoin="round"/>
<path d="M149.842 189.48C150.87 180.166 155.058 171.485 161.709 164.88C168.36 158.276 177.074 154.146 186.4 153.178C195.725 152.209 205.102 154.461 212.97 159.558C220.837 164.655 226.722 172.29 229.644 181.194" stroke="#BABABA" stroke-linecap="round" stroke-linejoin="round"/>
<path d="M154.427 117.605L139.383 136.123" stroke="#BABABA" stroke-linecap="round" stroke-linejoin="round"/>
<path d="M137.656 119.362L156.154 134.365" stroke="#BABABA" stroke-linecap="round" stroke-linejoin="round"/>
<path d="M227.163 110.072L212.12 128.559" stroke="#BABABA" stroke-linecap="round" stroke-linejoin="round"/>
<path d="M210.392 111.798L228.89 126.832" stroke="#BABABA" stroke-linecap="round" stroke-linejoin="round"/>
</svg>
