<svg width="370" height="296" viewBox="0 0 370 296" fill="none" xmlns="http://www.w3.org/2000/svg">
<path d="M249.105 80.9768C222.819 80.9768 196.155 79.9411 171.156 72.9733C146.157 66.0055 124.235 52.9802 104.041 37.7264C90.9138 27.7769 78.9167 19.8989 61.8947 21.0916C45.2094 21.9713 29.2518 28.2007 16.3875 38.8563C-5.31396 57.6881 -2.01634 92.9351 6.6517 117.636C19.6852 154.829 59.3823 180.66 93.2378 197.514C132.213 216.974 174.893 228.273 217.951 234.77C255.638 240.482 303.909 244.625 336.508 220.081C366.469 197.514 374.698 146.009 367.349 111.202C365.49 100.96 359.964 91.7442 351.803 85.2768C330.792 69.9288 299.386 80.1922 275.769 80.6944C266.975 80.7258 258.056 80.9455 249.105 80.9768Z" fill="#F2F2F2"/>
<path d="M323.506 220.364V233.829" stroke="#BABABA" stroke-linecap="round" stroke-linejoin="round"/>
<path d="M316.754 227.081H330.227" stroke="#BABABA" stroke-linecap="round" stroke-linejoin="round"/>
<path d="M88.4329 36.6593V50.1555" stroke="#BABABA" stroke-linecap="round" stroke-linejoin="round"/>
<path d="M81.7119 43.4073H95.185" stroke="#BABABA" stroke-linecap="round" stroke-linejoin="round"/>
<path d="M314.524 37.8834C316.224 37.8834 317.602 36.5063 317.602 34.8076C317.602 33.1088 316.224 31.7317 314.524 31.7317C312.824 31.7317 311.446 33.1088 311.446 34.8076C311.446 36.5063 312.824 37.8834 314.524 37.8834Z" fill="#CFCFCF"/>
<path d="M98.9225 136.217C100.622 136.217 102 134.84 102 133.141C102 131.442 100.622 130.065 98.9225 130.065C97.2227 130.065 95.8447 131.442 95.8447 133.141C95.8447 134.84 97.2227 136.217 98.9225 136.217Z" fill="#CFCFCF"/>
<path d="M198.039 295.691C261.609 295.691 313.142 292.487 313.142 288.535C313.142 284.583 261.609 281.379 198.039 281.379C134.47 281.379 82.9368 284.583 82.9368 288.535C82.9368 292.487 134.47 295.691 198.039 295.691Z" fill="#F2F2F2"/>
<path d="M249.137 222.875L193.266 189.354C191.366 188.224 189.196 187.627 186.985 187.627C184.774 187.627 182.604 188.224 180.704 189.354L126.12 222.624C124.263 223.755 122.138 224.372 119.964 224.411C117.789 224.449 115.644 223.909 113.747 222.845C111.851 221.781 110.273 220.231 109.174 218.355C108.075 216.48 107.496 214.345 107.496 212.172V12.2407C107.496 8.99425 108.787 5.88078 111.084 3.58521C113.381 1.28963 116.496 0 119.745 0H255.575C258.821 0.00828583 261.932 1.30058 264.227 3.59437C266.522 5.88815 267.815 8.9968 267.824 12.2407V212.36C267.842 214.549 267.273 216.702 266.175 218.595C265.078 220.489 263.493 222.054 261.585 223.128C259.677 224.202 257.516 224.744 255.326 224.7C253.137 224.655 251 224.025 249.137 222.875Z" fill="#D2D2D2"/>
<path d="M272.974 247.293L214.653 212.298C212.654 211.09 210.363 210.452 208.027 210.452C205.691 210.452 203.399 211.09 201.4 212.298L144.43 247.074C142.488 248.254 140.267 248.897 137.995 248.936C135.723 248.976 133.481 248.411 131.5 247.299C129.518 246.188 127.868 244.57 126.719 242.611C125.569 240.652 124.961 238.422 124.958 236.151V27.4004C124.966 24.0095 126.32 20.7604 128.722 18.3657C131.124 15.9709 134.379 14.6261 137.772 14.6261H279.569C282.959 14.6261 286.211 15.9719 288.608 18.3676C291.005 20.7632 292.352 24.0124 292.352 27.4004V236.34C292.354 238.603 291.754 240.826 290.614 242.782C289.473 244.738 287.834 246.355 285.863 247.47C283.891 248.584 281.659 249.155 279.394 249.124C277.13 249.093 274.914 248.461 272.974 247.293Z" fill="white" stroke="#BABABA" stroke-linecap="round" stroke-linejoin="round"/>
<path d="M208.655 160.667C241.107 160.667 267.415 134.375 267.415 101.943C267.415 69.5106 241.107 43.219 208.655 43.219C176.202 43.219 149.894 69.5106 149.894 101.943C149.894 134.375 176.202 160.667 208.655 160.667Z" fill="#D2D2D2"/>
<path d="M211.67 60.5443L222.473 82.5148L246.593 86.0301C247.21 86.1239 247.788 86.3872 248.263 86.7906C248.738 87.1941 249.092 87.7218 249.284 88.3146C249.477 88.9074 249.5 89.542 249.352 90.1474C249.204 90.7528 248.89 91.305 248.446 91.7424L230.984 108.754L235.099 132.764C235.205 133.381 235.137 134.016 234.901 134.596C234.666 135.177 234.273 135.679 233.767 136.048C233.26 136.417 232.661 136.637 232.036 136.684C231.411 136.73 230.786 136.601 230.231 136.311L208.655 124.824L187.079 136.186C186.524 136.476 185.898 136.605 185.273 136.558C184.649 136.512 184.049 136.292 183.543 135.923C183.037 135.554 182.644 135.051 182.408 134.471C182.173 133.89 182.105 133.256 182.211 132.639L186.357 108.628L168.895 91.5541C168.439 91.1218 168.114 90.5694 167.959 89.9606C167.804 89.3518 167.825 88.7115 168.019 88.1139C168.213 87.5163 168.572 86.9858 169.055 86.5837C169.538 86.1816 170.125 85.9244 170.748 85.8418L194.868 82.3265L205.671 60.356C205.969 59.8098 206.412 59.3569 206.952 59.0476C207.492 58.7383 208.107 58.5849 208.729 58.6044C209.35 58.624 209.955 58.8157 210.474 59.1582C210.993 59.5007 211.407 59.9806 211.67 60.5443Z" fill="white" stroke="#BABABA" stroke-linecap="round" stroke-linejoin="round"/>
</svg>
