<svg width="24" height="25" viewBox="0 0 24 25" fill="none" xmlns="http://www.w3.org/2000/svg">
<path d="M11.3229 9.375L14.625 12.6667V12.5C14.625 11.6712 14.2957 10.8763 13.7097 10.2903C13.1236 9.70424 12.3288 9.375 11.5 9.375H11.3229ZM6.84374 10.2083L8.45832 11.8229C8.40624 12.0417 8.37499 12.2604 8.37499 12.5C8.37499 13.3288 8.70423 14.1237 9.29028 14.7097C9.87633 15.2958 10.6712 15.625 11.5 15.625C11.7292 15.625 11.9583 15.5938 12.1771 15.5417L13.7917 17.1562C13.0937 17.5 12.3229 17.7083 11.5 17.7083C10.1187 17.7083 8.79389 17.1596 7.81714 16.1828C6.84039 15.2061 6.29166 13.8813 6.29166 12.5C6.29166 11.6771 6.49999 10.9062 6.84374 10.2083ZM1.08332 4.44792L3.45832 6.82292L3.92707 7.29167C2.20832 8.64583 0.854156 10.4167 0.0416565 12.5C1.84374 17.0729 6.29166 20.3125 11.5 20.3125C13.1146 20.3125 14.6562 20 16.0625 19.4375L16.5104 19.875L19.5521 22.9167L20.875 21.5937L2.40624 3.125M11.5 7.29167C12.8813 7.29167 14.2061 7.8404 15.1828 8.81715C16.1596 9.7939 16.7083 11.1187 16.7083 12.5C16.7083 13.1667 16.5729 13.8125 16.3333 14.3958L19.3854 17.4479C20.9479 16.1458 22.1979 14.4375 22.9583 12.5C21.1562 7.92708 16.7083 4.6875 11.5 4.6875C10.0417 4.6875 8.64582 4.94792 7.33332 5.41667L9.59374 7.65625C10.1875 7.42708 10.8229 7.29167 11.5 7.29167Z" fill="#6B7280"/>
</svg>
