<svg width="24" height="25" viewBox="0 0 24 25" fill="none" xmlns="http://www.w3.org/2000/svg">
<path d="M11.5 9.375C10.6712 9.375 9.87633 9.70424 9.29028 10.2903C8.70423 10.8763 8.37499 11.6712 8.37499 12.5C8.37499 13.3288 8.70423 14.1237 9.29028 14.7097C9.87633 15.2958 10.6712 15.625 11.5 15.625C12.3288 15.625 13.1236 15.2958 13.7097 14.7097C14.2957 14.1237 14.625 13.3288 14.625 12.5C14.625 11.6712 14.2957 10.8763 13.7097 10.2903C13.1236 9.70424 12.3288 9.375 11.5 9.375ZM11.5 17.7083C10.1187 17.7083 8.79389 17.1596 7.81714 16.1828C6.84039 15.2061 6.29166 13.8813 6.29166 12.5C6.29166 11.1187 6.84039 9.7939 7.81714 8.81715C8.79389 7.8404 10.1187 7.29167 11.5 7.29167C12.8813 7.29167 14.2061 7.8404 15.1828 8.81715C16.1596 9.7939 16.7083 11.1187 16.7083 12.5C16.7083 13.8813 16.1596 15.2061 15.1828 16.1828C14.2061 17.1596 12.8813 17.7083 11.5 17.7083ZM11.5 4.6875C6.29166 4.6875 1.84374 7.92708 0.0416565 12.5C1.84374 17.0729 6.29166 20.3125 11.5 20.3125C16.7083 20.3125 21.1562 17.0729 22.9583 12.5C21.1562 7.92708 16.7083 4.6875 11.5 4.6875Z" fill="#6B7280"/>
</svg>
