<svg width="30" height="30" viewBox="0 0 30 30" fill="none" xmlns="http://www.w3.org/2000/svg">
<path fill-rule="evenodd" clip-rule="evenodd" d="M5.83124 28.1247C4.78311 28.1247 3.78749 27.7084 3.03749 26.9678C2.28749 26.2272 1.88062 25.2222 1.88062 24.1741V5.81781C1.88062 4.76969 2.29687 3.77406 3.03749 3.02406C3.77812 2.27406 4.78311 1.86719 5.83124 1.86719H24.1875C25.2356 1.86719 26.2312 2.28344 26.9812 3.02406C27.7312 3.76469 28.1381 4.76969 28.1381 5.81781V24.1741C28.1381 25.2222 27.7219 26.2178 26.9812 26.9678C26.2406 27.7178 25.2356 28.1247 24.1875 28.1247H5.83124ZM21.8625 17.0434H19.0875V26.2122H24.1875C24.4553 26.2129 24.7207 26.1607 24.9683 26.0586C25.2159 25.9564 25.4409 25.8063 25.6303 25.6169C25.8197 25.4275 25.9698 25.2025 26.072 24.9549C26.1741 24.7073 26.2264 24.4419 26.2256 24.1741V5.81781C26.2259 5.55009 26.1733 5.28495 26.071 5.03756C25.9686 4.79018 25.8185 4.5654 25.6292 4.37609C25.4399 4.18678 25.2151 4.03667 24.9677 3.93433C24.7204 3.83199 24.4552 3.77944 24.1875 3.77969H5.83124C5.29115 3.78117 4.77361 3.99638 4.39171 4.37828C4.00981 4.76018 3.7946 5.27772 3.79312 5.81781V24.1741C3.7946 24.7141 4.00981 25.2317 4.39171 25.6136C4.77361 25.9955 5.29115 26.2107 5.83124 26.2122H16.0312V17.0434H12.975V13.9872H16.0312V12.3447C16.0312 9.23219 17.5462 7.86344 20.1375 7.86344C21.3506 7.86344 22.0031 7.95156 22.3125 7.99469L22.3312 7.99656V10.9216H20.5687C19.68 10.9216 19.26 11.3022 19.1325 12.0691C19.1019 12.2688 19.0874 12.4707 19.0894 12.6728V13.9797H22.2956L21.8587 17.0359L21.8625 17.0434Z" fill="#F9FAFC"/>
</svg>
