<svg width="70" height="70" viewBox="0 0 70 70" fill="none" xmlns="http://www.w3.org/2000/svg">
<g clip-path="url(#clip0_679_702)">
<path d="M22.6724 22.673C23.3288 22.0169 24.2189 21.6482 25.1469 21.6482C26.075 21.6482 26.9651 22.0169 27.6214 22.673L35.1604 30.2085L42.6959 22.673C43.0188 22.3387 43.405 22.0721 43.832 21.8886C44.259 21.7052 44.7183 21.6087 45.183 21.6046C45.6478 21.6006 46.1086 21.6891 46.5388 21.8651C46.9689 22.0411 47.3597 22.301 47.6883 22.6296C48.0169 22.9582 48.2768 23.349 48.4528 23.7792C48.6288 24.2093 48.7173 24.6702 48.7133 25.1349C48.7093 25.5996 48.6127 26.0589 48.4293 26.4859C48.2459 26.9129 47.9792 27.2991 47.6449 27.622L40.1094 35.161L47.6449 42.6965C48.2825 43.3566 48.6353 44.2407 48.6273 45.1584C48.6193 46.0761 48.2512 46.9539 47.6023 47.6029C46.9534 48.2518 46.0755 48.6199 45.1578 48.6279C44.2401 48.6358 43.356 48.2831 42.6959 47.6455L35.1604 40.11L27.6214 47.6455C26.9588 48.2678 26.0801 48.6078 25.1712 48.5937C24.2623 48.5796 23.3945 48.2124 22.7515 47.5699C22.1085 46.9273 21.7407 46.0598 21.726 45.1509C21.7112 44.2421 22.0506 43.3631 22.6724 42.7L30.2079 35.1645L22.6724 27.6255C22.0163 26.9692 21.6477 26.0791 21.6477 25.151C21.6477 24.2229 22.0163 23.3328 22.6724 22.6765" fill="#DC2626"/>
<path fill-rule="evenodd" clip-rule="evenodd" d="M35 0C15.6695 0 0 15.6695 0 35C0 54.3305 15.6695 70 35 70C54.3305 70 70 54.3305 70 35C70 15.6695 54.3305 0 35 0ZM7 35C7 27.5739 9.94999 20.452 15.201 15.201C20.452 9.94999 27.5739 7 35 7C42.4261 7 49.548 9.94999 54.799 15.201C60.05 20.452 63 27.5739 63 35C63 42.4261 60.05 49.548 54.799 54.799C49.548 60.05 42.4261 63 35 63C27.5739 63 20.452 60.05 15.201 54.799C9.94999 49.548 7 42.4261 7 35Z" fill="#DC2626"/>
</g>
<defs>
<clipPath id="clip0_679_702">
<rect width="70" height="70" fill="white"/>
</clipPath>
</defs>
</svg>
