<svg width="100" height="100" viewBox="0 0 100 100" fill="none" xmlns="http://www.w3.org/2000/svg">
<path d="M50 49.3929C56.2232 49.3929 61.2964 43.8482 61.2964 37.1018C61.2964 30.4322 56.25 25.15 50 25.15C43.8036 25.15 38.7036 30.5107 38.7036 37.1536C38.7286 43.875 43.8018 49.3929 50 49.3929ZM19.875 49.9661C25.2607 49.9661 29.6804 45.1268 29.6804 39.1911C29.6804 33.3875 25.3143 28.7054 19.875 28.7054C14.4875 28.7054 10.0411 33.4643 10.0679 39.2429C10.0946 45.1536 14.4875 49.9661 19.875 49.9661ZM80.1518 49.9661C85.5125 49.9661 89.9321 45.1536 89.9321 39.2429C89.9589 33.4643 85.5125 28.7054 80.1518 28.7054C74.6875 28.7054 70.3196 33.3857 70.3196 39.1911C70.3196 45.1268 74.7393 49.9661 80.1518 49.9661ZM50 45.4429C46.1821 45.4429 42.9125 41.7822 42.9125 37.1536C42.9125 32.6036 46.1304 29.1 50.0018 29.1C53.8964 29.1 57.0875 32.5518 57.0875 37.1C57.0875 41.7304 53.8696 45.4429 50 45.4429ZM19.875 46.0715C16.6839 46.0715 13.9643 43.0107 13.9643 39.2447C13.9643 35.559 16.6571 32.6018 19.875 32.6018C23.1696 32.6018 25.8107 35.5054 25.8107 39.1929C25.8107 43.0107 23.0911 46.0715 19.875 46.0715ZM80.1518 46.0715C76.9089 46.0715 74.1893 43.0107 74.1893 39.1929C74.1893 35.5054 76.8304 32.6036 80.1518 32.6036C83.3679 32.6036 86.0357 35.559 86.0357 39.2465C86.0357 43.0107 83.3411 46.0715 80.1518 46.0715ZM5.33393 73.9465H25.8625C24.6071 73.2411 23.6393 71.6715 23.8232 70.0768H4.68036C4.15714 70.0768 3.89643 69.8679 3.89643 69.3715C3.89643 62.8857 11.2964 56.8179 19.8482 56.8179C23.1429 56.8179 26.0982 57.6036 28.6339 59.0929C29.4748 58.0264 30.471 57.0922 31.5893 56.3215C28.2161 54.0982 24.1625 52.9482 19.8482 52.9482C8.89107 52.9482 0 60.8982 0 69.6072C0 72.509 1.77857 73.9465 5.33393 73.9465ZM94.6911 73.9465C98.2214 73.9465 100 72.509 100 69.6072C100 60.8982 91.1071 52.9482 80.1518 52.9482C75.8375 52.9482 71.8089 54.0982 68.4107 56.3232C69.5875 57.1322 70.5536 58.0482 71.3929 59.0929C73.9018 57.6036 76.8821 56.8179 80.1518 56.8179C88.7036 56.8179 96.1036 62.8857 96.1036 69.3715C96.1036 69.8679 95.8679 70.0768 95.3446 70.0768H76.2018C76.3589 71.6715 75.4179 73.2411 74.1625 73.9465H94.6911ZM33.5768 73.9465H66.4232C70.7625 73.9465 72.8304 72.6393 72.8304 69.7625C72.8304 62.9107 64.1732 53 50 53C35.8 53 27.1429 62.9107 27.1429 69.7625C27.1429 72.6393 29.2107 73.9465 33.5768 73.9465ZM32.3214 70C31.6429 70 31.3554 69.8161 31.3554 69.2679C31.3554 64.9768 37.9982 56.95 50 56.95C61.9768 56.95 68.6196 64.9768 68.6196 69.2661C68.6196 69.8161 68.3571 69.9982 67.6786 69.9982L32.3214 70Z" fill="#D9D9D9"/>
</svg>
