<svg width="25" height="25" viewBox="0 0 25 25" fill="none" xmlns="http://www.w3.org/2000/svg">
<path d="M12.5 11.9793C11.8094 11.9793 11.147 11.705 10.6586 11.2166C10.1702 10.7282 9.89587 10.0658 9.89587 9.37516C9.89587 8.6845 10.1702 8.02212 10.6586 7.53374C11.147 7.04536 11.8094 6.771 12.5 6.771C13.1907 6.771 13.8531 7.04536 14.3415 7.53374C14.8298 8.02212 15.1042 8.6845 15.1042 9.37516C15.1042 9.71715 15.0368 10.0558 14.906 10.3717C14.7751 10.6877 14.5833 10.9748 14.3415 11.2166C14.0996 11.4584 13.8126 11.6502 13.4966 11.7811C13.1807 11.912 12.842 11.9793 12.5 11.9793ZM12.5 2.0835C10.5662 2.0835 8.71151 2.85172 7.34405 4.21918C5.9766 5.58663 5.20837 7.44129 5.20837 9.37516C5.20837 14.8439 12.5 22.9168 12.5 22.9168C12.5 22.9168 19.7917 14.8439 19.7917 9.37516C19.7917 7.44129 19.0235 5.58663 17.656 4.21918C16.2886 2.85172 14.4339 2.0835 12.5 2.0835Z" fill="#6B7280"/>
</svg>
