<svg width="24" height="24" viewBox="0 0 24 24" fill="none" xmlns="http://www.w3.org/2000/svg">
<path d="M18.5378 6.09924L10.8828 13.7542C11.1101 14.0802 11.3018 14.4296 11.4578 14.8022L13.3678 19.4012L18.5378 6.09924ZM9.53577 12.4072L17.1918 4.75124L3.88877 9.92124L8.48777 11.8322C8.85695 11.9853 9.20836 12.1781 9.53577 12.4072ZM21.1538 4.54524L15.1268 20.0512C14.7468 21.0312 13.6498 21.5342 12.6778 21.1752C12.441 21.0878 12.2248 20.9523 12.0429 20.7773C11.861 20.6023 11.7173 20.3915 11.6208 20.1582L9.71077 15.5592C9.33931 14.6629 8.62713 13.9507 7.73077 13.5792L3.13077 11.6692C2.17677 11.2722 1.74077 10.1692 2.15877 9.20324C2.26126 8.9672 2.40946 8.75378 2.59482 8.57529C2.78017 8.39679 2.99903 8.25675 3.23877 8.16324L18.7448 2.13424C19.0817 1.99846 19.4511 1.96476 19.807 2.03735C20.163 2.10993 20.4897 2.28558 20.7466 2.54244C21.0034 2.7993 21.1791 3.12603 21.2517 3.48196C21.3242 3.83789 21.2905 4.20731 21.1548 4.54424L21.1538 4.54524Z" fill="#E5E7EB"/>
</svg>
