<svg width="25" height="25" viewBox="0 0 25 25" fill="none" xmlns="http://www.w3.org/2000/svg">
<path d="M12.25 5C12.94 5 13.5 5.56 13.5 6.25V11H18.25C18.5815 11 18.8995 11.1317 19.1339 11.3661C19.3683 11.6005 19.5 11.9185 19.5 12.25C19.5 12.5815 19.3683 12.8995 19.1339 13.1339C18.8995 13.3683 18.5815 13.5 18.25 13.5H13.5V18.25C13.5 18.5815 13.3683 18.8995 13.1339 19.1339C12.8995 19.3683 12.5815 19.5 12.25 19.5C11.9185 19.5 11.6005 19.3683 11.3661 19.1339C11.1317 18.8995 11 18.5815 11 18.25V13.5H6.25C5.91848 13.5 5.60054 13.3683 5.36612 13.1339C5.1317 12.8995 5 12.5815 5 12.25C5 11.9185 5.1317 11.6005 5.36612 11.3661C5.60054 11.1317 5.91848 11 6.25 11H11V6.25C11 5.56 11.56 5 12.25 5Z" fill="#FE6A03"/>
</svg>
