<svg width="45" height="45" viewBox="0 0 45 45" fill="none" xmlns="http://www.w3.org/2000/svg">
<path d="M22.5 30.1914L15.6937 34.3014C15.4938 34.4001 15.3081 34.4401 15.1369 34.4214C14.9669 34.4014 14.8013 34.3426 14.64 34.2451C14.4775 34.1451 14.355 34.0039 14.2725 33.8214C14.19 33.6389 14.1825 33.4395 14.25 33.2232L16.0613 25.517L10.0706 20.3232C9.90188 20.1857 9.79063 20.0214 9.73688 19.8301C9.68313 19.6389 9.695 19.4557 9.7725 19.2807C9.85 19.1057 9.95313 18.962 10.0819 18.8495C10.2119 18.7407 10.3869 18.667 10.6069 18.6282L18.5119 17.9382L21.5944 10.6407C21.6794 10.4345 21.8019 10.2857 21.9619 10.1945C22.1219 10.1032 22.3012 10.0576 22.5 10.0576C22.6987 10.0576 22.8787 10.1032 23.04 10.1945C23.2013 10.2857 23.3231 10.4345 23.4056 10.6407L26.4881 17.9382L34.3912 18.6282C34.6125 18.6657 34.7881 18.7401 34.9181 18.8514C35.0481 18.9614 35.1519 19.1045 35.2294 19.2807C35.3056 19.4557 35.3169 19.6389 35.2631 19.8301C35.2094 20.0214 35.0981 20.1857 34.9294 20.3232L28.9387 25.517L30.75 33.2232C30.82 33.437 30.8131 33.6357 30.7294 33.8195C30.6456 34.0032 30.5225 34.1445 30.36 34.2432C30.2 34.3432 30.0344 34.4026 29.8631 34.4214C29.6931 34.4401 29.5081 34.4001 29.3081 34.3014L22.5 30.1914Z" fill="#F59E0B"/>
</svg>
