<svg width="45" height="45" viewBox="0 0 45 45" fill="none" xmlns="http://www.w3.org/2000/svg">
<rect x="1.5" y="1.5" width="42" height="42" rx="21" fill="#F9FAFC"/>
<rect x="1.5" y="1.5" width="42" height="42" rx="21" stroke="#022855" stroke-width="3"/>
<g clip-path="url(#clip0_357_2257)">
<path d="M30 32H27.5V27.8333C27.5 27.3913 27.3244 26.9673 27.0118 26.6548C26.6993 26.3422 26.2754 26.1666 25.8333 26.1666H19.1667C18.7246 26.1666 18.3007 26.3422 17.9882 26.6548C17.6756 26.9673 17.5 27.3913 17.5 27.8333V32H15V27.8333C15.0013 26.7286 15.4407 25.6696 16.2218 24.8885C17.003 24.1074 18.062 23.6679 19.1667 23.6666H25.8333C26.938 23.6679 27.997 24.1074 28.7782 24.8885C29.5593 25.6696 29.9987 26.7286 30 27.8333V32Z" fill="#022855"/>
<path d="M22.5 21.9999C21.5111 21.9999 20.5444 21.7066 19.7222 21.1572C18.8999 20.6078 18.259 19.8269 17.8806 18.9133C17.5022 17.9997 17.4031 16.9943 17.5961 16.0244C17.789 15.0545 18.2652 14.1636 18.9645 13.4643C19.6637 12.7651 20.5546 12.2889 21.5246 12.096C22.4945 11.903 23.4998 12.002 24.4134 12.3805C25.3271 12.7589 26.1079 13.3998 26.6574 14.222C27.2068 15.0443 27.5 16.011 27.5 16.9999C27.4987 18.3256 26.9715 19.5966 26.0341 20.534C25.0967 21.4713 23.8257 21.9986 22.5 21.9999ZM22.5 14.4999C22.0055 14.4999 21.5222 14.6465 21.1111 14.9212C20.7 15.1959 20.3795 15.5864 20.1903 16.0432C20.0011 16.5 19.9516 17.0027 20.048 17.4876C20.1445 17.9726 20.3826 18.418 20.7322 18.7676C21.0819 19.1173 21.5273 19.3554 22.0123 19.4518C22.4972 19.5483 22.9999 19.4988 23.4567 19.3096C23.9135 19.1204 24.304 18.7999 24.5787 18.3888C24.8534 17.9777 25 17.4943 25 16.9999C25 16.3368 24.7366 15.701 24.2678 15.2321C23.7989 14.7633 23.163 14.4999 22.5 14.4999Z" fill="#022855"/>
</g>
<defs>
<clipPath id="clip0_357_2257">
<rect width="20" height="20" fill="white" transform="translate(12.5 12)"/>
</clipPath>
</defs>
</svg>
