<svg width="17" height="17" viewBox="0 0 17 17" fill="none" xmlns="http://www.w3.org/2000/svg">
<path d="M8.49984 1.4165C12.412 1.4165 15.5832 4.58771 15.5832 8.49984C15.5832 12.412 12.412 15.5832 8.49984 15.5832C4.58771 15.5832 1.4165 12.412 1.4165 8.49984C1.4165 4.58771 4.58771 1.4165 8.49984 1.4165ZM8.49984 2.83317C6.99694 2.83317 5.55561 3.43019 4.4929 4.4929C3.43019 5.55561 2.83317 6.99694 2.83317 8.49984C2.83317 10.0027 3.43019 11.4441 4.4929 12.5068C5.55561 13.5695 6.99694 14.1665 8.49984 14.1665C10.0027 14.1665 11.4441 13.5695 12.5068 12.5068C13.5695 11.4441 14.1665 10.0027 14.1665 8.49984C14.1665 6.99694 13.5695 5.55561 12.5068 4.4929C11.4441 3.43019 10.0027 2.83317 8.49984 2.83317ZM8.49984 4.24984C8.67333 4.24986 8.84079 4.31356 8.97043 4.42884C9.10008 4.54413 9.18291 4.70299 9.20321 4.8753L9.20817 4.95817V8.20659L11.1256 10.124C11.2527 10.2515 11.3264 10.4226 11.3319 10.6024C11.3374 10.7823 11.2742 10.9576 11.1552 11.0925C11.0362 11.2275 10.8702 11.3121 10.6911 11.3292C10.5119 11.3463 10.333 11.2945 10.1906 11.1844L10.124 11.1256L7.99905 9.00063C7.88896 8.89045 7.81825 8.74705 7.79788 8.59263L7.7915 8.49984V4.95817C7.7915 4.77031 7.86613 4.59014 7.99897 4.4573C8.13181 4.32447 8.31198 4.24984 8.49984 4.24984Z" fill="#F59E0B"/>
</svg>
